<svg width="32" height="32" viewBox="0 0 32 32" fill="none" xmlns="http://www.w3.org/2000/svg">
<rect width="32" height="32" rx="16" fill="#F0F4FD"/>
<path d="M6 24H26V26H6V24ZM8 16H10V23H8V16ZM13 16H15V23H13V16ZM17 16H19V23H17V16ZM22 16H24V23H22V16ZM6 11L16 6L26 11V15H6V11ZM16 12C16.2652 12 16.5196 11.8946 16.7071 11.7071C16.8946 11.5196 17 11.2652 17 11C17 10.7348 16.8946 10.4804 16.7071 10.2929C16.5196 10.1054 16.2652 10 16 10C15.7348 10 15.4804 10.1054 15.2929 10.2929C15.1054 10.4804 15 10.7348 15 11C15 11.2652 15.1054 11.5196 15.2929 11.7071C15.4804 11.8946 15.7348 12 16 12Z" fill="#135BFD"/>
</svg>
