<svg width="24" height="24" viewBox="0 0 24 24" fill="none" xmlns="http://www.w3.org/2000/svg">
<path d="M17 13V14C17 16.77 16.336 19.445 15.085 21.846L14.858 22.266L13.111 21.292C14.271 19.212 14.921 16.882 14.993 14.456L15 14V13H17ZM11 10H13V14L12.995 14.379C12.9194 17.1167 11.9772 19.7598 10.304 21.928L10.073 22.218L8.523 20.954C10.0494 19.0899 10.918 16.7741 10.994 14.366L11 14V10ZM12 6C13.3261 6 14.5979 6.52678 15.5355 7.46446C16.4732 8.40215 17 9.67392 17 11H15C15 10.2043 14.6839 9.44129 14.1213 8.87868C13.5587 8.31607 12.7956 8 12 8C11.2043 8 10.4413 8.31607 9.87868 8.87868C9.31607 9.44129 9 10.2043 9 11V14C9 16.235 8.18 18.344 6.729 19.977L6.517 20.207L5.069 18.827C6.23896 17.6029 6.92324 15.9948 6.994 14.303L7 14V11C7 9.67392 7.52678 8.40215 8.46447 7.46446C9.40215 6.52678 10.6739 6 12 6ZM12 2C14.3869 2 16.6761 2.94821 18.364 4.63604C20.0518 6.32386 21 8.61305 21 11V14C21 15.698 20.798 17.37 20.403 18.99L20.264 19.529L18.334 19.003C18.726 17.566 18.947 16.081 18.992 14.568L19 14V11C19 9.70086 18.6385 8.42736 17.9559 7.322C17.2733 6.21665 16.2965 5.32306 15.135 4.74124C13.9734 4.15942 12.6728 3.91232 11.3788 4.0276C10.0848 4.14289 8.84842 4.616 7.808 5.394L6.383 3.968C7.97647 2.69128 9.95815 1.99697 12 2ZM4.968 5.383L6.394 6.808C5.53633 7.95123 5.05106 9.33059 5.004 10.759L5 11L5.004 13C5.004 14.12 4.74 15.203 4.242 16.177L4.086 16.467L2.349 15.475C2.729 14.81 2.951 14.068 2.995 13.292L3.004 13V11C2.99807 8.95833 3.69115 6.97614 4.968 5.383Z" fill="#8791A7"/>
</svg>
