<svg width="42" height="42" viewBox="0 0 42 42" fill="none" xmlns="http://www.w3.org/2000/svg">
<circle cx="21" cy="21" r="21" fill="#C2D3FF"/>
<path d="M11 29H31V31H11V29ZM13 21H15V28H13V21ZM18 21H20V28H18V21ZM22 21H24V28H22V21ZM27 21H29V28H27V21ZM11 16L21 11L31 16V20H11V16ZM21 17C21.2652 17 21.5196 16.8946 21.7071 16.7071C21.8946 16.5196 22 16.2652 22 16C22 15.7348 21.8946 15.4804 21.7071 15.2929C21.5196 15.1054 21.2652 15 21 15C20.7348 15 20.4804 15.1054 20.2929 15.2929C20.1054 15.4804 20 15.7348 20 16C20 16.2652 20.1054 16.5196 20.2929 16.7071C20.4804 16.8946 20.7348 17 21 17Z" fill="#2A62F5"/>
</svg>
