<svg width="68" height="68" viewBox="0 0 68 68" fill="none" xmlns="http://www.w3.org/2000/svg">
<circle cx="34" cy="34" r="34" fill="#4D84FF"/>
<g clip-path="url(#clip0_7124_88259)">
<path d="M43.3333 31.3333H44.6667C45.0203 31.3333 45.3594 31.4738 45.6095 31.7238C45.8595 31.9739 46 32.313 46 32.6667V46C46 46.3536 45.8595 46.6927 45.6095 46.9428C45.3594 47.1928 45.0203 47.3333 44.6667 47.3333H23.3333C22.9797 47.3333 22.6406 47.1928 22.3905 46.9428C22.1405 46.6927 22 46.3536 22 46V32.6667C22 32.313 22.1405 31.9739 22.3905 31.7238C22.6406 31.4738 22.9797 31.3333 23.3333 31.3333H24.6667V30C24.6667 28.7743 24.9081 27.5606 25.3771 26.4283C25.8462 25.2959 26.5337 24.267 27.4003 23.4003C28.267 22.5336 29.2959 21.8462 30.4283 21.3771C31.5607 20.9081 32.7743 20.6667 34 20.6667C35.2257 20.6667 36.4393 20.9081 37.5717 21.3771C38.7041 21.8462 39.733 22.5336 40.5997 23.4003C41.4663 24.267 42.1538 25.2959 42.6229 26.4283C43.0919 27.5606 43.3333 28.7743 43.3333 30V31.3333ZM40.6667 31.3333V30C40.6667 28.2319 39.9643 26.5362 38.714 25.2859C37.4638 24.0357 35.7681 23.3333 34 23.3333C32.2319 23.3333 30.5362 24.0357 29.286 25.2859C28.0357 26.5362 27.3333 28.2319 27.3333 30V31.3333H40.6667ZM32.6667 36.6667V42H35.3333V36.6667H32.6667Z" fill="white"/>
</g>
<defs>
<clipPath id="clip0_7124_88259">
<rect width="32" height="32" fill="white" transform="translate(18 18)"/>
</clipPath>
</defs>
</svg>
