<svg width="42" height="42" viewBox="0 0 42 42" fill="none" xmlns="http://www.w3.org/2000/svg">
<rect width="42" height="42" rx="21" fill="#F0F4FD"/>
<path d="M7.875 17.0625H32.8125C33.1606 17.0625 33.4944 17.2008 33.7406 17.4469C33.9867 17.6931 34.125 18.0269 34.125 18.375V31.5C34.125 31.8481 33.9867 32.1819 33.7406 32.4281C33.4944 32.6742 33.1606 32.8125 32.8125 32.8125H9.1875C8.8394 32.8125 8.50556 32.6742 8.25942 32.4281C8.01328 32.1819 7.875 31.8481 7.875 31.5V17.0625ZM9.1875 9.1875H28.875V14.4375H7.875V10.5C7.875 10.1519 8.01328 9.81806 8.25942 9.57192C8.50556 9.32578 8.8394 9.1875 9.1875 9.1875V9.1875ZM24.9375 23.625V26.25H28.875V23.625H24.9375Z" fill="#2A62F5"/>
</svg>
