<svg width="36" height="36" viewBox="0 0 36 36" fill="none" xmlns="http://www.w3.org/2000/svg">
<circle cx="18" cy="18" r="18" fill="#E6EDFF"/>
<g clip-path="url(#clip0_18498_7669)">
<path d="M24.4177 18.3013C24.4177 18.4172 24.4148 18.5325 24.409 18.647C24.2349 22.0826 21.4801 24.8374 18.0445 25.0115C17.93 25.0174 17.8147 25.0203 17.6987 25.0203C17.5828 25.0203 17.4675 25.0174 17.3529 25.0115C13.9173 24.8374 11.1626 22.0826 10.9884 18.647C10.9826 18.5325 10.9797 18.4172 10.9797 18.3013C10.9797 14.7064 13.8028 11.771 17.3529 11.591C17.4674 11.5852 17.5828 11.5823 17.6987 11.5823C17.8147 11.5823 17.9299 11.5852 18.0445 11.591C18.9841 11.6387 19.8725 11.8797 20.6713 12.2745L22.7853 10.1605C21.3104 9.23704 19.5671 8.70264 17.6987 8.70264C12.3975 8.70264 8.1001 13.0001 8.1001 18.3013C8.1001 23.6024 12.3975 27.8999 17.6987 27.8999C22.9999 27.8999 27.2973 23.6024 27.2973 18.3013C27.2973 16.4328 26.7629 14.6895 25.8395 13.2148L23.7255 15.3287C24.1685 16.2249 24.4177 17.2339 24.4177 18.3013Z" fill="#4D84FF"/>
<path d="M19.582 19.4721L15.9825 20.0174L16.5277 16.4179L19.5787 13.3669C18.9946 13.1443 18.3609 13.022 17.6987 13.022C14.783 13.022 12.4194 15.3855 12.4194 18.3012C12.4194 21.2168 14.783 23.5804 17.6987 23.5804C20.6143 23.5804 22.9779 21.2168 22.9779 18.3012C22.9779 17.6389 22.8556 17.0053 22.6329 16.4212L19.582 19.4721Z" fill="#4D84FF"/>
<path d="M28.728 8.29003L27.7099 7.2719L26.6898 8.29204V6.2998H25.25V9.73184L17.8805 17.1014L17.6987 18.3012L18.8986 18.1194L26.2681 10.75H29.7001V9.31017H27.7079L28.728 8.29003Z" fill="#4D84FF"/>
</g>
<defs>
<clipPath id="clip0_18498_7669">
<rect width="21.6" height="21.6" fill="white" transform="translate(8.1001 6.2998)"/>
</clipPath>
</defs>
</svg>
