<svg width="48" height="48" viewBox="0 0 48 48" fill="none" xmlns="http://www.w3.org/2000/svg">
<circle cx="24" cy="24" r="24" fill="#E1E6F0"/>
<path d="M21 15H27L29 17H33C33.2652 17 33.5196 17.1054 33.7071 17.2929C33.8946 17.4804 34 17.7348 34 18V32C34 32.2652 33.8946 32.5196 33.7071 32.7071C33.5196 32.8946 33.2652 33 33 33H15C14.7348 33 14.4804 32.8946 14.2929 32.7071C14.1054 32.5196 14 32.2652 14 32V18C14 17.7348 14.1054 17.4804 14.2929 17.2929C14.4804 17.1054 14.7348 17 15 17H19L21 15ZM24 31C25.5913 31 27.1174 30.3679 28.2426 29.2426C29.3679 28.1174 30 26.5913 30 25C30 23.4087 29.3679 21.8826 28.2426 20.7574C27.1174 19.6321 25.5913 19 24 19C22.4087 19 20.8826 19.6321 19.7574 20.7574C18.6321 21.8826 18 23.4087 18 25C18 26.5913 18.6321 28.1174 19.7574 29.2426C20.8826 30.3679 22.4087 31 24 31ZM24 29C22.9391 29 21.9217 28.5786 21.1716 27.8284C20.4214 27.0783 20 26.0609 20 25C20 23.9391 20.4214 22.9217 21.1716 22.1716C21.9217 21.4214 22.9391 21 24 21C25.0609 21 26.0783 21.4214 26.8284 22.1716C27.5786 22.9217 28 23.9391 28 25C28 26.0609 27.5786 27.0783 26.8284 27.8284C26.0783 28.5786 25.0609 29 24 29Z" fill="#001140"/>
</svg>
