<svg width="38" height="38" viewBox="0 0 38 38" fill="none" xmlns="http://www.w3.org/2000/svg">
<rect width="38" height="38" rx="19" fill="#F0F4FD"/>
<g clip-path="url(#clip0_18132_44666)">
<path d="M19.2812 23.2258V24.6356C19.4676 24.6004 19.6223 24.5196 19.7383 24.3825C19.8543 24.2489 19.9141 24.0907 19.9141 23.9114C19.9141 23.7497 19.8648 23.609 19.7664 23.493C19.668 23.3805 19.5063 23.2891 19.2812 23.2258Z" fill="#135BFD"/>
<path d="M18.2546 21.4188C18.2546 21.5454 18.2933 21.6649 18.3742 21.7739C18.455 21.8829 18.5746 21.9708 18.7363 22.0411V20.7896C18.5886 20.8388 18.4726 20.9196 18.3847 21.0356C18.2968 21.1481 18.2546 21.2782 18.2546 21.4188Z" fill="#135BFD"/>
<path d="M20.4203 24.8851C20.1461 25.1839 19.7664 25.3667 19.2777 25.4335V26.1085H18.7328V25.4511C18.3004 25.4019 17.9488 25.2437 17.6816 24.9835C17.4109 24.7233 17.2387 24.3542 17.1648 23.8796L18.1422 23.7776C18.1809 23.971 18.2582 24.1362 18.3672 24.2769C18.4762 24.4175 18.5992 24.5194 18.7328 24.5792V23.064C18.2441 22.9304 17.8855 22.7229 17.657 22.4522C17.4285 22.178 17.3125 21.8476 17.3125 21.4538C17.3125 21.0565 17.4426 20.7261 17.6992 20.4554C17.9594 20.1847 18.3004 20.03 18.7328 19.9913V19.6327H19.2812V19.9913C19.6785 20.037 19.9949 20.1671 20.2305 20.3851C20.466 20.5995 20.6137 20.8913 20.6805 21.2499L19.7312 21.3694C19.675 21.0847 19.5238 20.8913 19.2812 20.7894V22.2026C19.8824 22.3608 20.2902 22.5612 20.5082 22.8108C20.7262 23.0604 20.8352 23.3804 20.8352 23.7706C20.8316 24.2206 20.6945 24.5862 20.4203 24.8851ZM26.8961 18.1421H11.1039C10.7066 18.1421 10.3867 18.462 10.3867 18.8593V26.896C10.3867 27.2933 10.7066 27.6132 11.1039 27.6132H26.8961C27.2934 27.6132 27.6133 27.2933 27.6133 26.896V18.8593C27.6133 18.462 27.2934 18.1421 26.8961 18.1421Z" fill="#135BFD"/>
<path d="M25.0116 15.5898H12.9882C12.5909 15.5898 12.271 15.9098 12.271 16.307C12.271 16.7043 12.5909 17.0242 12.9882 17.0242H25.0116C25.4089 17.0242 25.7288 16.7043 25.7288 16.307C25.7288 15.9133 25.4089 15.5898 25.0116 15.5898Z" fill="#135BFD"/>
<path d="M15.1432 14.4227H22.86C23.2573 14.4227 23.5772 14.1027 23.5772 13.7055C23.5772 13.3082 23.2573 12.9883 22.86 12.9883H15.1432C14.746 12.9883 14.4261 13.3082 14.4261 13.7055C14.4225 14.1027 14.746 14.4227 15.1432 14.4227Z" fill="#135BFD"/>
<path d="M17.7167 11.8211H20.2866C20.6839 11.8211 21.0038 11.5012 21.0038 11.1039C21.0038 10.7066 20.6839 10.3867 20.2866 10.3867H17.7167C17.3194 10.3867 16.9995 10.7066 16.9995 11.1039C16.9995 11.5012 17.3194 11.8211 17.7167 11.8211Z" fill="#135BFD"/>
</g>
<defs>
<clipPath id="clip0_18132_44666">
<rect width="18" height="18" fill="white" transform="translate(10 10)"/>
</clipPath>
</defs>
</svg>
