<svg width="32" height="32" viewBox="0 0 32 32" fill="none" xmlns="http://www.w3.org/2000/svg">
<path d="M15.9999 16.7813L21.6572 22.4373L19.7705 24.324L17.3332 21.8867V29.3333H14.6665V21.884L12.2292 24.324L10.3425 22.4373L15.9999 16.7813ZM15.9999 2.66666C18.2892 2.66677 20.4986 3.50814 22.2081 5.03081C23.9176 6.55349 25.008 8.65127 25.2719 10.9253C26.9309 11.3777 28.3782 12.3988 29.3607 13.81C30.3433 15.2213 30.7987 16.9329 30.6474 18.6458C30.496 20.3588 29.7475 21.964 28.5326 23.1811C27.3178 24.3981 25.7138 25.1495 24.0012 25.304V22.6187C24.6148 22.531 25.2047 22.3221 25.7366 22.004C26.2686 21.6858 26.7318 21.265 27.0993 20.7659C27.4668 20.2668 27.7312 19.6995 27.877 19.0971C28.0229 18.4947 28.0473 17.8693 27.9488 17.2574C27.8503 16.6455 27.631 16.0593 27.3035 15.5331C26.976 15.0069 26.547 14.5512 26.0415 14.1926C25.536 13.834 24.9641 13.5797 24.3592 13.4445C23.7543 13.3094 23.1286 13.296 22.5185 13.4053C22.7273 12.4332 22.716 11.4266 22.4855 10.4594C22.2549 9.49217 21.8109 8.58877 21.186 7.81536C20.5611 7.04196 19.7711 6.41813 18.8738 5.98958C17.9766 5.56103 16.9949 5.33861 16.0005 5.33861C15.0062 5.33861 14.0245 5.56103 13.1272 5.98958C12.23 6.41813 11.44 7.04196 10.8151 7.81536C10.1901 8.58877 9.74613 9.49217 9.51557 10.4594C9.285 11.4266 9.27371 12.4332 9.48253 13.4053C8.26607 13.1769 7.00868 13.441 5.98698 14.1397C4.96529 14.8383 4.26297 15.9142 4.03453 17.1307C3.80609 18.3471 4.07024 19.6045 4.76887 20.6262C5.46751 21.6479 6.5434 22.3502 7.75986 22.5787L7.99986 22.6187V25.304C6.28713 25.1498 4.68307 24.3985 3.46804 23.1816C2.25301 21.9646 1.50429 20.3594 1.35276 18.6464C1.20122 16.9334 1.6565 15.2217 2.63902 13.8104C3.62154 12.399 5.0688 11.3778 6.72786 10.9253C6.99147 8.65116 8.08173 6.5532 9.7913 5.03048C11.5009 3.50775 13.7105 2.66647 15.9999 2.66666Z" fill="#4D84FF"/>
</svg>
