<svg width="32" height="32" viewBox="0 0 32 32" fill="none" xmlns="http://www.w3.org/2000/svg">
<rect width="32" height="32" rx="16" fill="#F0F4FD"/>
<path d="M16 26C10.477 26 6 21.523 6 16C6 10.477 10.477 6 16 6C21.523 6 26 10.477 26 16C26 21.523 21.523 26 16 26ZM15 20V22H17V20H18C18.4643 20 18.9194 19.8707 19.3143 19.6266C19.7093 19.3825 20.0284 19.0333 20.2361 18.618C20.4437 18.2028 20.5316 17.7379 20.4899 17.2755C20.4482 16.8131 20.2786 16.3714 20 16C20.2786 15.6286 20.4482 15.1869 20.4899 14.7245C20.5316 14.2621 20.4437 13.7972 20.2361 13.382C20.0284 12.9667 19.7093 12.6175 19.3143 12.3734C18.9194 12.1293 18.4643 12 18 12H17V10H15V12H12V20H15ZM14 17H18C18.1326 17 18.2598 17.0527 18.3536 17.1464C18.4473 17.2402 18.5 17.3674 18.5 17.5C18.5 17.6326 18.4473 17.7598 18.3536 17.8536C18.2598 17.9473 18.1326 18 18 18H14V17ZM14 14H18C18.1326 14 18.2598 14.0527 18.3536 14.1464C18.4473 14.2402 18.5 14.3674 18.5 14.5C18.5 14.6326 18.4473 14.7598 18.3536 14.8536C18.2598 14.9473 18.1326 15 18 15H14V14Z" fill="#135BFD"/>
</svg>
