<svg width="22" height="22" viewBox="0 0 22 22" fill="none" xmlns="http://www.w3.org/2000/svg">
<path d="M18.8241 11.7441H17.1227C17.2961 12.2189 17.3908 12.7313 17.3908 13.2654V19.6957C17.3908 19.9184 17.3521 20.1321 17.2816 20.3309H20.0943C21.145 20.3309 21.9998 19.476 21.9998 18.4254V14.9199C21.9999 13.1688 20.5752 11.7441 18.8241 11.7441Z" fill="#4D84FF"/>
<path d="M4.60905 13.2655C4.60905 12.7314 4.7038 12.2191 4.87722 11.7443H3.17583C1.42467 11.7443 0 13.1689 0 14.9201V18.4255C0 19.4762 0.854779 20.331 1.9055 20.331H4.71832C4.64781 20.1322 4.60905 19.9185 4.60905 19.6958V13.2655Z" fill="#4D84FF"/>
<path d="M12.946 10.0898H9.05637C7.30523 10.0898 5.88055 11.5145 5.88055 13.2656V19.6959C5.88055 20.0466 6.16492 20.3311 6.51572 20.3311H15.4866C15.8374 20.3311 16.1218 20.0467 16.1218 19.6959V13.2656C16.1218 11.5145 14.6971 10.0898 12.946 10.0898Z" fill="#4D84FF"/>
<path d="M11.0009 1.66895C8.89491 1.66895 7.18158 3.38228 7.18158 5.48832C7.18158 6.91681 7.97001 8.16442 9.13438 8.81943C9.68666 9.1301 10.3234 9.30764 11.0009 9.30764C11.6784 9.30764 12.3151 9.1301 12.8674 8.81943C14.0318 8.16442 14.8202 6.91677 14.8202 5.48832C14.8202 3.38233 13.1069 1.66895 11.0009 1.66895Z" fill="#4D84FF"/>
<path d="M4.29282 5.22888C2.71779 5.22888 1.43646 6.51021 1.43646 8.08524C1.43646 9.66026 2.71779 10.9416 4.29282 10.9416C4.69234 10.9416 5.07279 10.8588 5.41838 10.7101C6.01591 10.4528 6.50859 9.99744 6.81345 9.42702C7.02744 9.02668 7.14917 8.56997 7.14917 8.08524C7.14917 6.51026 5.86784 5.22888 4.29282 5.22888Z" fill="#4D84FF"/>
<path d="M17.7061 5.22888C16.1311 5.22888 14.8497 6.51021 14.8497 8.08524C14.8497 8.57001 14.9715 9.02673 15.1854 9.42702C15.4903 9.99748 15.983 10.4529 16.5805 10.7101C16.9261 10.8588 17.3066 10.9416 17.7061 10.9416C19.2811 10.9416 20.5624 9.66026 20.5624 8.08524C20.5624 6.51021 19.2811 5.22888 17.7061 5.22888Z" fill="#4D84FF"/>
</svg>
