<svg width="36" height="36" viewBox="0 0 36 36" fill="none" xmlns="http://www.w3.org/2000/svg">
<circle cx="18" cy="18" r="18" fill="#949DBC"/>
<path d="M20.121 14.8177L15.879 19.0604C15.8073 19.1296 15.7502 19.2124 15.7109 19.3039C15.6716 19.3954 15.6509 19.4938 15.65 19.5934C15.6492 19.6929 15.6681 19.7917 15.7059 19.8839C15.7436 19.9761 15.7993 20.0598 15.8697 20.1302C15.9401 20.2006 16.0238 20.2563 16.116 20.294C16.2082 20.3317 16.3069 20.3507 16.4065 20.3499C16.5061 20.349 16.6045 20.3283 16.696 20.289C16.7875 20.2497 16.8703 20.1925 16.9395 20.1209L21.1822 15.8789C21.6042 15.4569 21.8413 14.8846 21.8413 14.2878C21.8413 13.691 21.6042 13.1187 21.1822 12.6967C20.7602 12.2747 20.1879 12.0376 19.5911 12.0376C18.9943 12.0376 18.422 12.2747 18 12.6967L13.7572 16.9394C13.4018 17.286 13.1187 17.6997 12.9244 18.1566C12.7301 18.6134 12.6284 19.1043 12.6253 19.6008C12.6222 20.0972 12.7177 20.5893 12.9063 21.0486C13.0948 21.5078 13.3727 21.9251 13.7238 22.2761C14.0749 22.6271 14.4921 22.905 14.9514 23.0934C15.4107 23.2819 15.9028 23.3774 16.3993 23.3742C16.8957 23.371 17.3866 23.2693 17.8434 23.0749C18.3002 22.8806 18.7139 22.5974 19.0605 22.2419L23.3032 17.9999L24.3637 19.0604L20.121 23.3032C19.6334 23.7907 19.0547 24.1774 18.4177 24.4413C17.7807 24.7051 17.0979 24.8409 16.4085 24.8409C15.719 24.8409 15.0363 24.7051 14.3993 24.4413C13.7623 24.1774 13.1835 23.7907 12.696 23.3032C12.2084 22.8156 11.8217 22.2368 11.5579 21.5999C11.294 20.9629 11.1582 20.2801 11.1582 19.5907C11.1582 18.9012 11.294 18.2185 11.5579 17.5815C11.8217 16.9445 12.2084 16.3657 12.696 15.8782L16.9395 11.6362C17.6467 10.9531 18.594 10.5751 19.5772 10.5836C20.5605 10.5922 21.501 10.9866 22.1963 11.6818C22.8916 12.3771 23.286 13.3177 23.2945 14.3009C23.303 15.2841 22.9251 16.2314 22.242 16.9387L18 21.1829C17.791 21.3919 17.5429 21.5576 17.2698 21.6707C16.9968 21.7837 16.7041 21.8419 16.4086 21.8419C16.113 21.8418 15.8204 21.7836 15.5474 21.6705C15.2744 21.5573 15.0263 21.3915 14.8173 21.1825C14.6084 20.9735 14.4427 20.7254 14.3296 20.4524C14.2165 20.1793 14.1584 19.8867 14.1584 19.5912C14.1584 19.2956 14.2167 19.003 14.3298 18.73C14.4429 18.4569 14.6087 18.2089 14.8177 17.9999L19.0605 13.7572L20.121 14.8177Z" fill="white"/>
</svg>
