<svg width="32" height="32" viewBox="0 0 32 32" fill="none" xmlns="http://www.w3.org/2000/svg">
<rect width="32" height="32" rx="16" fill="#F0F4FD"/>
<path d="M7 7H25C25.2652 7 25.5196 7.10536 25.7071 7.29289C25.8946 7.48043 26 7.73478 26 8V24C26 24.2652 25.8946 24.5196 25.7071 24.7071C25.5196 24.8946 25.2652 25 25 25H7C6.73478 25 6.48043 24.8946 6.29289 24.7071C6.10536 24.5196 6 24.2652 6 24V8C6 7.73478 6.10536 7.48043 6.29289 7.29289C6.48043 7.10536 6.73478 7 7 7ZM12.5 18V20H15V22H17V20H18C18.663 20 19.2989 19.7366 19.7678 19.2678C20.2366 18.7989 20.5 18.163 20.5 17.5C20.5 16.837 20.2366 16.2011 19.7678 15.7322C19.2989 15.2634 18.663 15 18 15H14C13.8674 15 13.7402 14.9473 13.6464 14.8536C13.5527 14.7598 13.5 14.6326 13.5 14.5C13.5 14.3674 13.5527 14.2402 13.6464 14.1464C13.7402 14.0527 13.8674 14 14 14H19.5V12H17V10H15V12H14C13.337 12 12.7011 12.2634 12.2322 12.7322C11.7634 13.2011 11.5 13.837 11.5 14.5C11.5 15.163 11.7634 15.7989 12.2322 16.2678C12.7011 16.7366 13.337 17 14 17H18C18.1326 17 18.2598 17.0527 18.3536 17.1464C18.4473 17.2402 18.5 17.3674 18.5 17.5C18.5 17.6326 18.4473 17.7598 18.3536 17.8536C18.2598 17.9473 18.1326 18 18 18H12.5Z" fill="#135BFD"/>
</svg>
