<svg width="36" height="36" viewBox="0 0 36 36" fill="none" xmlns="http://www.w3.org/2000/svg">
<circle cx="18" cy="18" r="18" fill="#E6EDFF"/>
<path d="M18 27C13.0293 27 9 22.9707 9 18C9 13.0293 13.0293 9 18 9C22.9707 9 27 13.0293 27 18C27 22.9707 22.9707 27 18 27ZM14.85 19.8V21.6H17.1V23.4H18.9V21.6H19.8C20.3967 21.6 20.969 21.3629 21.391 20.941C21.8129 20.519 22.05 19.9467 22.05 19.35C22.05 18.7533 21.8129 18.181 21.391 17.759C20.969 17.3371 20.3967 17.1 19.8 17.1H16.2C16.0807 17.1 15.9662 17.0526 15.8818 16.9682C15.7974 16.8838 15.75 16.7693 15.75 16.65C15.75 16.5307 15.7974 16.4162 15.8818 16.3318C15.9662 16.2474 16.0807 16.2 16.2 16.2H21.15V14.4H18.9V12.6H17.1V14.4H16.2C15.6033 14.4 15.031 14.6371 14.609 15.059C14.1871 15.481 13.95 16.0533 13.95 16.65C13.95 17.2467 14.1871 17.819 14.609 18.241C15.031 18.6629 15.6033 18.9 16.2 18.9H19.8C19.9193 18.9 20.0338 18.9474 20.1182 19.0318C20.2026 19.1162 20.25 19.2307 20.25 19.35C20.25 19.4693 20.2026 19.5838 20.1182 19.6682C20.0338 19.7526 19.9193 19.8 19.8 19.8H14.85Z" fill="#4D84FF"/>
</svg>
