<svg width="443" height="133" viewBox="0 0 443 133" fill="none" xmlns="http://www.w3.org/2000/svg">
<path d="M236.924 408C345.428 408 443 316.661 443 210.365C443 104.069 345.428 0 236.924 0C128.42 0 29 121.455 29 226.914C29 332.374 128.42 408 236.924 408Z" fill="url(#paint0_linear_4553_21052)" fill-opacity="0.06"/>
<path d="M414.39 117.23C414.39 145.382 390.021 171.568 352.072 190.718C314.127 209.866 262.621 221.972 208.381 221.972C154.139 221.972 102.17 211.949 63.7629 194.938C25.3516 177.925 0.523592 153.933 0.523592 126.004C0.523592 112.039 6.73078 97.54 17.7417 83.6446C28.7523 69.7496 44.5644 56.4613 63.7679 44.9191C102.175 21.8346 154.143 5.7378 208.381 5.7378C262.62 5.7378 314.126 19.5307 352.071 40.3663C390.02 61.2039 414.39 89.0766 414.39 117.23Z" stroke="#AAB6FF" stroke-opacity="0.5" stroke-width="0.0921052"/>
<defs>
<linearGradient id="paint0_linear_4553_21052" x1="-117.388" y1="205.574" x2="273.048" y2="516.891" gradientUnits="userSpaceOnUse">
<stop stop-color="#F0F4FD"/>
<stop offset="1" stop-color="#F0F4FD"/>
</linearGradient>
</defs>
</svg>
