<svg width="443" height="165" viewBox="0 0 443 165" fill="none" xmlns="http://www.w3.org/2000/svg">
<path d="M236.924 160C345.428 160 443 60.8261 443 -54.5889C443 -170.004 345.428 -283 236.924 -283C128.42 -283 29 -151.127 29 -36.6201C29 77.8863 128.42 160 236.924 160Z" fill="url(#paint0_linear_4553_21049)" fill-opacity="0.06"/>
<path d="M414.862 60.1853C414.862 88.3376 390.493 114.523 352.544 133.673C314.599 152.822 263.093 164.928 208.852 164.928C154.611 164.928 102.642 154.904 64.2345 137.893C25.8233 120.881 0.995271 96.8883 0.995271 68.9599C0.995271 54.9946 7.20246 40.4953 18.2133 26.6C29.224 12.705 45.0361 -0.583321 64.2396 -12.1255C102.647 -35.21 154.614 -51.3068 208.852 -51.3068C263.091 -51.3068 314.598 -37.5139 352.543 -16.6783C390.491 4.15928 414.862 32.0319 414.862 60.1853Z" stroke="#AAB6FF" stroke-opacity="0.6" stroke-width="0.0921052"/>
<defs>
<linearGradient id="paint0_linear_4553_21049" x1="-117.388" y1="-59.7915" x2="297.523" y2="244.903" gradientUnits="userSpaceOnUse">
<stop stop-color="#F0F4FD"/>
<stop offset="1" stop-color="#F0F4FD"/>
</linearGradient>
</defs>
</svg>
