<svg width="20" height="20" viewBox="0 0 20 20" fill="none" xmlns="http://www.w3.org/2000/svg">
<path d="M3.76663 4.94493L1.1608 2.33993L2.33996 1.16077L18.8391 17.6608L17.66 18.8391L14.9016 16.0808C13.436 17.0104 11.7356 17.5027 9.99996 17.4999C5.50663 17.4999 1.7683 14.2666 0.984131 9.99993C1.34249 8.05886 2.31882 6.28568 3.76746 4.94493H3.76663ZM12.2975 13.4766L11.0775 12.2566C10.6108 12.4799 10.0864 12.5529 9.57657 12.4656C9.0667 12.3783 8.59647 12.135 8.23069 11.7692C7.86491 11.4034 7.62161 10.9332 7.53431 10.4233C7.44702 9.91345 7.52003 9.38906 7.7433 8.92243L6.5233 7.70243C5.99306 8.50367 5.75602 9.46354 5.85232 10.4195C5.94862 11.3755 6.37234 12.2688 7.05173 12.9482C7.73112 13.6276 8.62443 14.0513 9.58039 14.1476C10.5364 14.2439 11.4962 14.0068 12.2975 13.4766ZM6.64496 3.13327C7.68413 2.72493 8.81663 2.49993 9.99996 2.49993C14.4933 2.49993 18.2316 5.73327 19.0158 9.99993C18.7605 11.388 18.1865 12.6979 17.3391 13.8266L14.1225 10.6099C14.218 9.96628 14.1615 9.30919 13.9574 8.69131C13.7533 8.07343 13.4074 7.51194 12.9472 7.05182C12.4871 6.5917 11.9256 6.24574 11.3078 6.04166C10.6899 5.83758 10.0328 5.78105 9.38913 5.8766L6.64496 3.1341V3.13327Z" fill="#001140"/>
</svg>
