<svg width="20" height="16" viewBox="0 0 20 16" fill="none" xmlns="http://www.w3.org/2000/svg">
<path d="M0.984291 8.00745C1.76762 3.74078 5.50679 0.507446 10.0001 0.507446C14.4935 0.507446 18.2318 3.74078 19.016 8.00745C18.2326 12.2741 14.4935 15.5074 10.0001 15.5074C5.50679 15.5074 1.76846 12.2741 0.984291 8.00745ZM10.0001 12.1741C11.1052 12.1741 12.165 11.7351 12.9464 10.9537C13.7278 10.1723 14.1668 9.11251 14.1668 8.00745C14.1668 6.90238 13.7278 5.84257 12.9464 5.06117C12.165 4.27977 11.1052 3.84078 10.0001 3.84078C8.89506 3.84078 7.83525 4.27977 7.05385 5.06117C6.27245 5.84257 5.83346 6.90238 5.83346 8.00745C5.83346 9.11251 6.27245 10.1723 7.05385 10.9537C7.83525 11.7351 8.89506 12.1741 10.0001 12.1741ZM10.0001 10.5074C9.33708 10.5074 8.7012 10.2441 8.23236 9.77521C7.76352 9.30637 7.50012 8.67049 7.50012 8.00745C7.50012 7.3444 7.76352 6.70852 8.23236 6.23968C8.7012 5.77084 9.33708 5.50745 10.0001 5.50745C10.6632 5.50745 11.2991 5.77084 11.7679 6.23968C12.2367 6.70852 12.5001 7.3444 12.5001 8.00745C12.5001 8.67049 12.2367 9.30637 11.7679 9.77521C11.2991 10.2441 10.6632 10.5074 10.0001 10.5074Z" fill="#4F5877"/>
</svg>
