<svg width="24" height="25" viewBox="0 0 24 25" fill="none" xmlns="http://www.w3.org/2000/svg">
<g clip-path="url(#clip0_19915_109269)">
<path d="M24 12.8086C24 6.18117 18.6274 0.808594 12 0.808594C5.37258 0.808594 0 6.18117 0 12.8086C0 18.7981 4.38825 23.7626 10.125 24.6628V16.2773H7.07812V12.8086H10.125V10.1648C10.125 7.15734 11.9165 5.49609 14.6576 5.49609C15.9705 5.49609 17.3438 5.73047 17.3438 5.73047V8.68359H15.8306C14.3399 8.68359 13.875 9.60858 13.875 10.5576V12.8086H17.2031L16.6711 16.2773H13.875V24.6628C19.6118 23.7626 24 18.7981 24 12.8086Z" fill="#1877F2"/>
<path d="M16.6711 16.2773L17.2031 12.8086H13.875V10.5576C13.875 9.60858 14.3399 8.68359 15.8306 8.68359H17.3438V5.73047C17.3438 5.73047 15.9705 5.49609 14.6576 5.49609C11.9165 5.49609 10.125 7.15734 10.125 10.1648V12.8086H7.07812V16.2773H10.125V24.6628C10.7359 24.7587 11.3621 24.8086 12 24.8086C12.6379 24.8086 13.264 24.7587 13.875 24.6628V16.2773H16.6711Z" fill="white"/>
</g>
<defs>
<clipPath id="clip0_19915_109269">
<rect width="24" height="24" fill="white" transform="translate(0 0.808594)"/>
</clipPath>
</defs>
</svg>
