<svg width="72" height="72" viewBox="0 0 72 72" fill="none" xmlns="http://www.w3.org/2000/svg">
<circle cx="36" cy="36" r="36" fill="#B2B9C7"/>
<path d="M39.6887 30.4657L32.3113 37.8444C32.1868 37.9647 32.0874 38.1086 32.019 38.2677C31.9507 38.4269 31.9147 38.598 31.9132 38.7712C31.9117 38.9444 31.9447 39.1162 32.0103 39.2765C32.0759 39.4368 32.1727 39.5824 32.2952 39.7049C32.4177 39.8273 32.5633 39.9242 32.7236 39.9898C32.8839 40.0554 33.0556 40.0884 33.2288 40.0869C33.402 40.0853 33.5732 40.0494 33.7323 39.981C33.8914 39.9126 34.0354 39.8133 34.1557 39.6887L41.5344 32.3113C42.2683 31.5774 42.6806 30.582 42.6806 29.5441C42.6806 28.5062 42.2683 27.5109 41.5344 26.777C40.8005 26.0431 39.8051 25.6308 38.7672 25.6308C37.7293 25.6308 36.7339 26.0431 36 26.777L28.6213 34.1557C28.0032 34.7584 27.5109 35.478 27.1729 36.2725C26.835 37.067 26.6582 37.9207 26.6528 38.7841C26.6474 39.6475 26.8135 40.5034 27.1414 41.3021C27.4694 42.1008 27.9526 42.8264 28.5632 43.4369C29.1738 44.0473 29.8995 44.5305 30.6982 44.8583C31.4969 45.1861 32.3528 45.3521 33.2162 45.3466C34.0796 45.341 34.9333 45.1641 35.7278 44.8261C36.5223 44.4881 37.2417 43.9956 37.8444 43.3774L45.2231 36L47.0674 37.8444L39.6887 45.223C38.8409 46.0709 37.8343 46.7435 36.7265 47.2024C35.6187 47.6612 34.4313 47.8974 33.2322 47.8974C32.0331 47.8974 30.8458 47.6612 29.738 47.2024C28.6302 46.7435 27.6236 46.0709 26.7757 45.223C25.9278 44.3752 25.2552 43.3686 24.7964 42.2608C24.3375 41.153 24.1013 39.9656 24.1013 38.7665C24.1013 37.5674 24.3375 36.3801 24.7964 35.2723C25.2552 34.1645 25.9278 33.1579 26.7757 32.31L34.1557 24.9326C35.3857 23.7446 37.0331 23.0873 38.7431 23.1021C40.4531 23.117 42.0888 23.8029 43.298 25.0121C44.5072 26.2212 45.1931 27.857 45.2079 29.567C45.2228 31.2769 44.5654 32.9243 43.3774 34.1544L36 41.5357C35.6366 41.899 35.2051 42.1873 34.7302 42.3839C34.2553 42.5806 33.7464 42.6817 33.2324 42.6817C32.7184 42.6816 32.2095 42.5803 31.7347 42.3836C31.2599 42.1868 30.8284 41.8985 30.465 41.535C30.1017 41.1715 29.8134 40.74 29.6168 40.2652C29.4201 39.7903 29.319 39.2813 29.319 38.7674C29.3191 38.2534 29.4204 37.7445 29.6171 37.2696C29.8139 36.7948 30.1022 36.3634 30.4657 36L37.8444 28.6213L39.6887 30.4657Z" fill="#F7F9FD"/>
</svg>