<svg width="16" height="18" viewBox="0 0 16 18" fill="none" xmlns="http://www.w3.org/2000/svg">
<path d="M10.8594 5.63018L5.71975 10.7708C5.63296 10.8546 5.56373 10.9549 5.51611 11.0657C5.46848 11.1766 5.44342 11.2958 5.44237 11.4165C5.44132 11.5371 5.46431 11.6568 5.51 11.7685C5.55569 11.8802 5.62317 11.9816 5.70849 12.0669C5.79381 12.1523 5.89527 12.2197 6.00695 12.2654C6.11862 12.3111 6.23828 12.3341 6.35894 12.3331C6.4796 12.332 6.59884 12.3069 6.70971 12.2593C6.82057 12.2117 6.92084 12.1425 7.00467 12.0557L12.1452 6.91601C12.6565 6.40472 12.9438 5.71125 12.9438 4.98818C12.9438 4.2651 12.6565 3.57164 12.1452 3.06035C11.634 2.54905 10.9405 2.26181 10.2174 2.26181C9.49434 2.26181 8.80088 2.54905 8.28959 3.06035L3.14901 8.20093C2.71835 8.62087 2.37536 9.12214 2.13994 9.67567C1.90452 10.2292 1.78135 10.824 1.77758 11.4255C1.77381 12.027 1.88952 12.6232 2.11798 13.1797C2.34645 13.7361 2.68313 14.2416 3.10849 14.6669C3.53386 15.0922 4.03944 15.4289 4.59591 15.6572C5.15238 15.8856 5.74866 16.0013 6.35016 15.9974C6.95166 15.9935 7.54641 15.8703 8.0999 15.6348C8.6534 15.3993 9.15462 15.0562 9.5745 14.6255L14.7151 9.48584L16 10.7708L10.8594 15.9113C10.2687 16.502 9.56746 16.9706 8.79567 17.2903C8.02388 17.61 7.19668 17.7745 6.3613 17.7745C5.52592 17.7745 4.69873 17.61 3.92694 17.2903C3.15515 16.9706 2.45388 16.502 1.86318 15.9113C1.27248 15.3206 0.80391 14.6194 0.484225 13.8476C0.16454 13.0758 -6.22405e-09 12.2486 0 11.4132C6.22405e-09 10.5778 0.16454 9.75064 0.484225 8.97885C0.80391 8.20707 1.27248 7.5058 1.86318 6.9151L7.00467 1.77543C7.86159 0.947785 9.00931 0.48982 10.2006 0.500172C11.3919 0.510524 12.5315 0.988365 13.3739 1.83078C14.2163 2.67319 14.6942 3.81277 14.7045 5.00407C14.7149 6.19538 14.2569 7.34309 13.4293 8.20002L8.28959 13.3424C8.03636 13.5956 7.73575 13.7964 7.40492 13.9334C7.07408 14.0704 6.71951 14.1409 6.36143 14.1408C6.00336 14.1408 5.6488 14.0702 5.318 13.9331C4.9872 13.7961 4.68664 13.5952 4.43347 13.342C4.18031 13.0887 3.97949 12.7881 3.8425 12.4573C3.70551 12.1265 3.63503 11.7719 3.63507 11.4138C3.63511 11.0557 3.70568 10.7012 3.84275 10.3704C3.97982 10.0396 4.1807 9.73901 4.43393 9.48584L9.5745 4.34526L10.8594 5.63018Z" fill="black"/>
</svg>
