<svg width="24" height="21" viewBox="0 0 24 21" fill="none" xmlns="http://www.w3.org/2000/svg">
<g clip-path="url(#clip0_11616_33370)">
<path d="M19.44 5.75999H22.8C23.1183 5.75999 23.4235 5.63356 23.6485 5.40851C23.8736 5.18347 24 4.87824 24 4.55999C24 4.24173 23.8736 3.9365 23.6485 3.71146C23.4235 3.48641 23.1183 3.35999 22.8 3.35999H19.44C19.1217 3.35999 18.8165 3.48641 18.5915 3.71146C18.3664 3.9365 18.24 4.24173 18.24 4.55999C18.24 4.87824 18.3664 5.18347 18.5915 5.40851C18.8165 5.63356 19.1217 5.75999 19.44 5.75999ZM7.44 3.35999H1.2C0.88174 3.35999 0.576515 3.48641 0.351472 3.71146C0.126428 3.9365 0 4.24173 0 4.55999C0 4.87824 0.126428 5.18347 0.351472 5.40851C0.576515 5.63356 0.88174 5.75999 1.2 5.75999H7.44C7.75826 5.75999 8.06348 5.63356 8.28853 5.40851C8.51357 5.18347 8.64 4.87824 8.64 4.55999C8.64 4.24173 8.51357 3.9365 8.28853 3.71146C8.06348 3.48641 7.75826 3.35999 7.44 3.35999ZM4.56 14.4H1.2C0.88174 14.4 0.576515 14.5264 0.351472 14.7515C0.126428 14.9765 0 15.2817 0 15.6C0 15.9182 0.126428 16.2235 0.351472 16.4485C0.576515 16.6736 0.88174 16.8 1.2 16.8H4.56C4.87826 16.8 5.18348 16.6736 5.40853 16.4485C5.63357 16.2235 5.76 15.9182 5.76 15.6C5.76 15.2817 5.63357 14.9765 5.40853 14.7515C5.18348 14.5264 4.87826 14.4 4.56 14.4ZM22.8 14.4H16.56C16.2417 14.4 15.9365 14.5264 15.7115 14.7515C15.4864 14.9765 15.36 15.2817 15.36 15.6C15.36 15.9182 15.4864 16.2235 15.7115 16.4485C15.9365 16.6736 16.2417 16.8 16.56 16.8H22.8C23.1183 16.8 23.4235 16.6736 23.6485 16.4485C23.8736 16.2235 24 15.9182 24 15.6C24 15.2817 23.8736 14.9765 23.6485 14.7515C23.4235 14.5264 23.1183 14.4 22.8 14.4Z" fill="#8791A7"/>
<path d="M8.88001 11.04C7.97813 11.04 7.0965 11.3074 6.34661 11.8085C5.59672 12.3096 5.01225 13.0217 4.66712 13.855C4.32198 14.6882 4.23168 15.6051 4.40763 16.4896C4.58358 17.3742 5.01788 18.1867 5.6556 18.8244C6.29333 19.4621 7.10584 19.8964 7.9904 20.0724C8.87495 20.2483 9.79181 20.158 10.625 19.8129C11.4583 19.4678 12.1705 18.8833 12.6715 18.1334C13.1726 17.3835 13.44 16.5019 13.44 15.6C13.44 14.3906 12.9596 13.2308 12.1044 12.3756C11.2492 11.5204 10.0894 11.04 8.88001 11.04ZM8.88001 17.76C8.4528 17.76 8.03519 17.6333 7.67998 17.396C7.32477 17.1586 7.04791 16.8213 6.88443 16.4266C6.72094 16.0319 6.67817 15.5976 6.76151 15.1786C6.84486 14.7596 7.05058 14.3747 7.35266 14.0726C7.65474 13.7706 8.03961 13.5648 8.45861 13.4815C8.87761 13.3982 9.31192 13.4409 9.7066 13.6044C10.1013 13.7679 10.4386 14.0448 10.676 14.4C10.9133 14.7552 11.04 15.1728 11.04 15.6C11.0387 16.1725 10.8108 16.7211 10.406 17.1259C10.0012 17.5308 9.45249 17.7587 8.88001 17.76ZM15.12 0C14.2181 0 13.3365 0.267439 12.5866 0.768499C11.8367 1.26956 11.2523 1.98173 10.9071 2.81496C10.562 3.64819 10.4717 4.56506 10.6476 5.44961C10.8236 6.33417 11.2579 7.14668 11.8956 7.78441C12.5333 8.42213 13.3458 8.85643 14.2304 9.03238C15.115 9.20833 16.0318 9.11803 16.865 8.77289C17.6983 8.42775 18.4104 7.84329 18.9115 7.0934C19.4126 6.34351 19.68 5.46188 19.68 4.56C19.68 3.96117 19.5621 3.36821 19.3329 2.81496C19.1037 2.26172 18.7678 1.75903 18.3444 1.33559C17.921 0.912158 17.4183 0.576271 16.865 0.347109C16.3118 0.117948 15.7188 0 15.12 0V0ZM15.12 6.72C14.6928 6.72 14.2752 6.59332 13.92 6.35597C13.5648 6.11863 13.2879 5.78128 13.1244 5.3866C12.9609 4.99191 12.9182 4.5576 13.0015 4.1386C13.0849 3.71961 13.2906 3.33473 13.5927 3.03265C13.8947 2.73057 14.2796 2.52485 14.6986 2.4415C15.1176 2.35816 15.5519 2.40093 15.9466 2.56442C16.3413 2.72791 16.6786 3.00476 16.916 3.35997C17.1533 3.71518 17.28 4.13279 17.28 4.56C17.2787 5.13248 17.0508 5.68115 16.646 6.08595C16.2412 6.49075 15.6925 6.71873 15.12 6.72Z" fill="#8791A7"/>
</g>
<defs>
<clipPath id="clip0_11616_33370">
<rect width="24" height="20.16" fill="white"/>
</clipPath>
</defs>
</svg>
