<svg width="24" height="24" viewBox="0 0 24 24" fill="none" xmlns="http://www.w3.org/2000/svg">
<path d="M18.5663 5.38397H18.1803L14.9186 2.12227C14.7912 1.99697 14.6196 1.92676 14.4409 1.92676C14.2622 1.92676 14.0907 1.99697 13.9632 2.12227C13.7027 2.38282 13.7027 2.80742 13.9632 3.07762L16.2696 5.38397H6.88979L9.19614 3.07762C9.45669 2.81707 9.45669 2.39247 9.19614 2.12227C9.06872 1.99697 8.89717 1.92676 8.71846 1.92676C8.53976 1.92676 8.36821 1.99697 8.24079 2.12227L4.98874 5.38397H4.60274C3.73424 5.38397 1.92969 5.38397 1.92969 7.85437C1.92969 8.79042 2.12269 9.40802 2.52799 9.81332C2.75959 10.0546 3.03944 10.18 3.33859 10.2476C3.61844 10.3151 3.91759 10.3248 4.20709 10.3248H18.9523C19.2514 10.3248 19.5313 10.3055 19.8015 10.2476C20.6121 10.0546 21.2297 9.47557 21.2297 7.85437C21.2297 5.38397 19.4251 5.38397 18.5663 5.38397ZM18.3829 11.5802H4.69924C4.10094 11.5802 3.64739 12.111 3.74389 12.6996L4.55449 17.6597C4.82469 19.3195 5.54844 21.2302 8.76189 21.2302H14.1755C17.4276 21.2302 18.0066 19.5994 18.354 17.7755L19.3286 12.7286C19.3562 12.589 19.3524 12.445 19.3176 12.3071C19.2828 12.1691 19.2179 12.0406 19.1274 11.9307C19.037 11.8209 18.9233 11.7325 18.7945 11.6719C18.6658 11.6113 18.5252 11.58 18.3829 11.5802ZM11.5797 18.8177C10.4928 18.8152 9.45106 18.3823 8.68248 17.6137C7.9139 16.8451 7.48099 15.8034 7.47844 14.7165C7.47844 14.3208 7.80654 13.9927 8.20219 13.9927C8.59784 13.9927 8.92594 14.3208 8.92594 14.7165C8.92594 16.1833 10.1129 17.3702 11.5797 17.3702C13.0465 17.3702 14.2334 16.1833 14.2334 14.7165C14.2334 14.3208 14.5615 13.9927 14.9572 13.9927C15.3528 13.9927 15.6809 14.3208 15.6809 14.7165C15.6784 15.8034 15.2455 16.8451 14.4769 17.6137C13.7083 18.3823 12.6666 18.8152 11.5797 18.8177Z" fill="#135BFD"/>
</svg>
