<svg width="36" height="40" viewBox="0 0 36 40" fill="none" xmlns="http://www.w3.org/2000/svg">
<path d="M33.9659 13.5224H22.1963C24.7282 12.6941 27.372 10.9592 28.3919 9.93943C30.667 7.66431 30.6673 3.98176 28.3919 1.70647C26.1169 -0.568736 22.4343 -0.56891 20.1589 1.70647C19.4869 2.37849 18.6954 3.50662 18.0001 4.74651C17.3049 3.50662 16.5132 2.37849 15.8412 1.70647C13.566 -0.568648 9.88363 -0.568823 7.60825 1.70647C5.33305 3.98167 5.33287 7.66405 7.60825 9.93943C8.62812 10.9593 11.2719 12.6942 13.804 13.5224H2.03405C1.19745 13.5224 0.519226 14.2007 0.519226 15.0373V22.0285C0.519226 22.8651 1.19745 23.5433 2.03405 23.5433H3.5253V38.4852C3.5253 39.3218 4.20352 40 5.04012 40H14.2427C14.2427 39.7935 14.2427 13.7661 14.2427 13.5224H17.735H21.7572C21.7572 13.7673 21.7572 39.7981 21.7572 40H30.9598C31.7964 40 32.4746 39.3218 32.4746 38.4852V23.5433H33.9658C34.8024 23.5433 35.4807 22.8651 35.4807 22.0285V15.0373C35.4808 14.2006 34.8026 13.5224 33.9659 13.5224ZM10.2324 7.31525C9.40762 6.49043 9.40744 5.15555 10.2324 4.33056C11.0572 3.50575 12.3922 3.50566 13.2171 4.33056C13.7061 4.81959 14.6017 6.12888 15.2982 7.59219C15.814 8.67553 16.1158 10.1656 16.1126 10.2668C14.4483 10.1141 11.2729 8.35581 10.2324 7.31525ZM19.8259 10.2729C19.8959 9.44953 20.3452 8.34157 20.7018 7.59219C21.3984 6.12888 22.294 4.81959 22.7829 4.33056C23.6078 3.50575 24.9427 3.50566 25.7676 4.33056C26.5924 5.15547 26.5925 6.49026 25.7675 7.31525C24.7079 8.37519 21.4628 10.1596 19.8259 10.2729Z" fill="#4D84FF"/>
</svg>
