<svg width="20" height="20" viewBox="0 0 20 20" fill="none" xmlns="http://www.w3.org/2000/svg">
<path d="M18 11.0034V18.0034C18 18.2686 17.8946 18.523 17.7071 18.7105C17.5196 18.8981 17.2652 19.0034 17 19.0034H3C2.73478 19.0034 2.48043 18.8981 2.29289 18.7105C2.10536 18.523 2 18.2686 2 18.0034V11.0034H18ZM12.5 0.00342183C13.0906 0.00321984 13.6717 0.152497 14.1892 0.437351C14.7066 0.722205 15.1435 1.13337 15.4592 1.63256C15.7749 2.13174 15.9592 2.7027 15.9948 3.29228C16.0305 3.88185 15.9163 4.47085 15.663 5.00442L19 5.00342C19.2652 5.00342 19.5196 5.10878 19.7071 5.29632C19.8946 5.48385 20 5.73821 20 6.00342V9.00342C20 9.26864 19.8946 9.52299 19.7071 9.71053C19.5196 9.89806 19.2652 10.0034 19 10.0034H1C0.734784 10.0034 0.48043 9.89806 0.292893 9.71053C0.105357 9.52299 0 9.26864 0 9.00342V6.00342C0 5.73821 0.105357 5.48385 0.292893 5.29632C0.48043 5.10878 0.734784 5.00342 1 5.00342L4.337 5.00442C3.98076 4.25609 3.90163 3.40563 4.1137 2.60442C4.32577 1.80322 4.81529 1.10327 5.4951 0.629175C6.17491 0.155083 7.0009 -0.0623829 7.82603 0.0154894C8.65116 0.0933617 9.42189 0.461519 10.001 1.05442C10.326 0.720948 10.7147 0.4561 11.1439 0.275568C11.5732 0.0950368 12.0343 0.00249396 12.5 0.00342183V0.00342183ZM7.5 2.00342C7.11478 2.00361 6.74441 2.152 6.46561 2.41783C6.18682 2.68366 6.02099 3.04656 6.00248 3.43134C5.98396 3.81611 6.11419 4.19325 6.36618 4.48462C6.61816 4.77599 6.97258 4.95925 7.356 4.99642L7.5 5.00342H9V3.50342C8.99998 3.13054 8.86108 2.77103 8.61038 2.495C8.35968 2.21897 8.01516 2.04622 7.644 2.01042L7.5 2.00342ZM12.5 2.00342L12.356 2.01042C12.0094 2.04363 11.6851 2.1964 11.4388 2.44253C11.1925 2.68866 11.0395 3.01282 11.006 3.35942L11 3.50342V5.00342H12.5L12.644 4.99642C13.015 4.96045 13.3594 4.78762 13.6099 4.51161C13.8605 4.2356 13.9993 3.87619 13.9993 3.50342C13.9993 3.13066 13.8605 2.77124 13.6099 2.49523C13.3594 2.21922 13.015 2.04639 12.644 2.01042L12.5 2.00342Z" fill="#8791A7"/>
</svg>
