<svg width="14" height="15" viewBox="0 0 14 15" fill="none" xmlns="http://www.w3.org/2000/svg">
<path d="M7.00016 14.1663C3.31816 14.1663 0.333496 11.1817 0.333496 7.49967C0.333496 3.81767 3.31816 0.833008 7.00016 0.833008C10.6822 0.833008 13.6668 3.81767 13.6668 7.49967C13.6668 11.1817 10.6822 14.1663 7.00016 14.1663ZM7.00016 12.833C8.41465 12.833 9.77121 12.2711 10.7714 11.2709C11.7716 10.2707 12.3335 8.91416 12.3335 7.49967C12.3335 6.08519 11.7716 4.72863 10.7714 3.72844C9.77121 2.72824 8.41465 2.16634 7.00016 2.16634C5.58567 2.16634 4.22912 2.72824 3.22893 3.72844C2.22873 4.72863 1.66683 6.08519 1.66683 7.49967C1.66683 8.91416 2.22873 10.2707 3.22893 11.2709C4.22912 12.2711 5.58567 12.833 7.00016 12.833ZM6.3335 4.16634H7.66683V5.49967H6.3335V4.16634ZM6.3335 6.83301H7.66683V10.833H6.3335V6.83301Z" fill="#4F5877"/>
</svg>
