<svg width="24" height="24" viewBox="0 0 24 24" fill="none" xmlns="http://www.w3.org/2000/svg">
<path d="M18.3641 15.5362L16.9501 14.1202L18.3641 12.7062C18.8318 12.2427 19.2032 11.6913 19.4572 11.0838C19.7112 10.4763 19.8427 9.82465 19.8441 9.1662C19.8455 8.50775 19.7169 7.8555 19.4656 7.24689C19.2143 6.63828 18.8452 6.08531 18.3797 5.61971C17.9141 5.15412 17.3611 4.78507 16.7525 4.53376C16.1439 4.28245 15.4916 4.15382 14.8332 4.15526C14.1747 4.1567 13.523 4.28819 12.9155 4.54216C12.308 4.79614 11.7567 5.1676 11.2931 5.63523L9.87913 7.05023L8.46413 5.63623L9.88013 4.22223C11.193 2.90941 12.9735 2.17188 14.8301 2.17188C16.6867 2.17188 18.4673 2.90941 19.7801 4.22223C21.093 5.53505 21.8305 7.31562 21.8305 9.17223C21.8305 11.0288 21.093 12.8094 19.7801 14.1222L18.3651 15.5362H18.3641ZM15.5361 18.3642L14.1211 19.7782C12.8083 21.0911 11.0277 21.8286 9.17113 21.8286C7.31452 21.8286 5.53396 21.0911 4.22113 19.7782C2.90831 18.4654 2.17078 16.6848 2.17078 14.8282C2.17078 12.9716 2.90831 11.1911 4.22113 9.87823L5.63613 8.46423L7.05013 9.88023L5.63613 11.2942C5.1685 11.7578 4.79704 12.3091 4.54306 12.9166C4.28909 13.5241 4.1576 14.1758 4.15616 14.8343C4.15472 15.4927 4.28335 16.145 4.53466 16.7536C4.78597 17.3622 5.15502 17.9152 5.62062 18.3808C6.08621 18.8463 6.63919 19.2154 7.24779 19.4667C7.8564 19.718 8.50865 19.8466 9.1671 19.8452C9.82555 19.8438 10.4772 19.7123 11.0847 19.4583C11.6922 19.2043 12.2436 18.8329 12.7071 18.3652L14.1211 16.9512L15.5361 18.3652V18.3642ZM14.8281 7.75723L16.2431 9.17223L9.17213 16.2422L7.75713 14.8282L14.8281 7.75823V7.75723Z" fill="#135BFD"/>
</svg>
