<svg width="24" height="27" viewBox="0 0 24 27" fill="none" xmlns="http://www.w3.org/2000/svg">
<g clip-path="url(#clip0_20095_108777)">
<path d="M18.3643 17.0755L16.9503 15.5352L18.3643 13.9971C18.8319 13.4928 19.2034 12.8931 19.4573 12.2323C19.7113 11.5715 19.8428 10.8626 19.8442 10.1463C19.8457 9.43008 19.717 8.72058 19.4657 8.05856C19.2144 7.39653 18.8454 6.79502 18.3798 6.28856C17.9142 5.78209 17.3612 5.38065 16.7526 5.10728C16.144 4.83391 15.4917 4.69399 14.8333 4.69556C14.1748 4.69713 13.5232 4.84015 12.9157 5.11642C12.3082 5.39269 11.7568 5.79676 11.2933 6.30544L9.87926 7.84464L8.46426 6.30652L9.88026 4.76841C11.1931 3.34036 12.9736 2.53809 14.8303 2.53809C16.6869 2.53809 18.4674 3.34036 19.7803 4.76841C21.0931 6.19647 21.8306 8.13332 21.8306 10.1529C21.8306 12.1725 21.0931 14.1093 19.7803 15.5374L18.3653 17.0755H18.3643ZM15.5363 20.1517L14.1213 21.6898C12.8084 23.1179 11.0279 23.9202 9.17126 23.9202C7.31465 23.9202 5.53408 23.1179 4.22126 21.6898C2.90843 20.2618 2.1709 18.3249 2.1709 16.3053C2.1709 14.2858 2.90843 12.3489 4.22126 10.9209L5.63626 9.38275L7.05026 10.923L5.63626 12.4612C5.16863 12.9654 4.79716 13.5651 4.54318 14.226C4.28921 14.8868 4.15773 15.5957 4.15628 16.3119C4.15484 17.0282 4.28347 17.7377 4.53478 18.3997C4.78609 19.0617 5.15514 19.6632 5.62074 20.1697C6.08633 20.6761 6.63931 21.0776 7.24791 21.351C7.85652 21.6243 8.50877 21.7642 9.16722 21.7627C9.82567 21.7611 10.4774 21.6181 11.0849 21.3418C11.6924 21.0656 12.2437 20.6615 12.7073 20.1528L14.1213 18.6147L15.5363 20.1528V20.1517ZM14.8283 8.61369L16.2433 10.1529L9.17226 17.8435L7.75726 16.3053L14.8283 8.61478V8.61369Z" fill="#001140"/>
</g>
<defs>
<clipPath id="clip0_20095_108777">
<rect width="24" height="26.1066" fill="white" transform="translate(0 0.175781)"/>
</clipPath>
</defs>
</svg>
