<svg width="140" height="30" viewBox="0 0 140 30" fill="none" xmlns="http://www.w3.org/2000/svg">
<g clip-path="url(#clip0_4132_58810)">
<path d="M29.2207 11.7071L29.2032 11.6251L24.5997 14.0602L23.3458 14.7256L20.459 16.2533L19.0904 16.9753L14.8796 19.2094C14.811 19.244 14.7316 19.2499 14.6586 19.2258C14.5857 19.2016 14.5254 19.1494 14.4908 19.0806L14.1195 18.3118L13.9368 17.9509C13.9116 17.8996 13.8719 17.857 13.8227 17.8283C13.7735 17.7995 13.7169 17.786 13.6601 17.7893C13.6033 17.7926 13.5487 17.8127 13.5032 17.847C13.4576 17.8813 13.4232 17.9283 13.4041 17.9821L13.1086 18.8406L12.4846 20.6474L11.9014 22.3586L11.8897 22.3918L12.5001 22.5557L16.6681 23.6854L16.7031 23.664L15.9605 22.1323H15.9721L15.9566 22.1069C15.9525 22.1001 15.948 22.0936 15.943 22.0874V22.0445L16.1646 21.9293C16.1612 21.9227 16.1566 21.9167 16.151 21.9118C16.1576 21.9161 16.163 21.9222 16.1666 21.9293L26.3377 16.6553C26.2833 17.0085 26.2113 17.3577 26.1258 17.6992C25.6205 19.7201 24.587 21.569 23.132 23.0552C23.0115 23.1762 22.8909 23.2952 22.7665 23.4122C22.6713 23.5001 22.5721 23.5859 22.4808 23.6698C22.3369 23.7966 22.1892 23.9196 22.0395 24.0386C21.8898 24.1576 21.7342 24.2747 21.5787 24.3878L21.499 24.4444L21.4193 24.4991L21.258 24.6083C20.7677 24.937 20.253 25.2273 19.7183 25.4766C19.5239 25.5703 19.3139 25.66 19.104 25.742C18.9757 25.7946 18.8454 25.8434 18.7152 25.8903C18.5849 25.9371 18.4508 25.982 18.3264 26.0249L18.1922 26.0659C18.1475 26.0815 18.1028 26.0932 18.0561 26.1068C15.5687 26.8262 12.9141 26.7 10.5055 25.7478L10.4725 25.7342C10.1692 25.6151 9.87373 25.4805 9.58601 25.3439C9.46354 25.2815 9.34107 25.219 9.21859 25.1488C9.09612 25.0786 8.97948 25.0142 8.85895 24.9537C8.73842 24.8932 8.62566 24.8093 8.50902 24.7352C8.4507 24.6981 8.39238 24.661 8.33795 24.622C8.05023 24.4269 7.77418 24.2317 7.50785 24.0132C7.39898 23.9274 7.294 23.8396 7.19097 23.7498L6.88381 23.4766L6.66608 23.2698C6.59415 23.1996 6.52223 23.1274 6.45418 23.0571C6.19952 22.7957 5.95846 22.5264 5.73101 22.2435C5.58132 22.0484 5.43551 21.8669 5.29749 21.6737C4.93849 21.1712 4.61996 20.6408 4.34491 20.0874C4.33792 20.0763 4.33206 20.0646 4.32742 20.0523C4.3202 20.041 4.31371 20.0293 4.30798 20.0172C4.18161 19.7577 4.06109 19.4904 3.95416 19.2211C3.63512 18.4245 3.4056 17.5947 3.26987 16.747C3.15782 16.1136 3.09736 15.4722 3.08907 14.829C3.08847 14.3784 3.11444 13.9282 3.16683 13.4807C3.226 12.9606 3.31952 12.445 3.44677 11.9373C3.49343 11.7559 3.54397 11.5744 3.59841 11.3968C3.75508 10.872 3.95001 10.3594 4.18161 9.8632C4.19911 9.82223 4.21661 9.7832 4.23605 9.74418C4.86034 8.44661 5.71699 7.27529 6.76328 6.28863C6.99074 6.07205 7.22791 5.86717 7.47286 5.6701L7.62643 5.54718C7.73141 5.46523 7.83833 5.38718 7.94525 5.30913L8.10661 5.19401C8.2563 5.08865 8.40793 4.98719 8.56346 4.89158C8.71898 4.79597 8.87255 4.69646 9.03197 4.60866C9.19138 4.52085 9.35079 4.43305 9.51408 4.3511C9.67738 4.26915 9.84651 4.1872 10.0156 4.11305C10.0759 4.08379 10.1362 4.05842 10.1984 4.0311L10.5872 3.87696C10.7174 3.82818 10.8457 3.78135 10.976 3.73647C12.1982 3.314 13.4819 3.09838 14.7746 3.09844H15.0196C15.1829 3.09844 15.3442 3.09844 15.5056 3.11795C15.6319 3.11795 15.7564 3.13551 15.8808 3.14722C16.0778 3.16673 16.2722 3.19014 16.464 3.21746C16.7303 3.25453 16.9928 3.30331 17.2533 3.3599C17.436 3.39892 17.6168 3.4438 17.7976 3.49063C18.0445 3.55697 18.2855 3.63111 18.5247 3.71111C18.688 3.76769 18.8513 3.82623 19.0107 3.89062C19.1701 3.95501 19.3295 4.0194 19.487 4.08574L19.7202 4.19305L19.8933 4.27695C20.008 4.33354 20.1226 4.39012 20.2354 4.45061L20.4045 4.54232L17.7043 5.94132L12.5623 8.61835L9.74931 10.07L9.64822 9.87491L9.0203 8.65932C8.99444 8.60933 8.95468 8.56796 8.90583 8.54023C8.85698 8.5125 8.80116 8.49961 8.74515 8.50312C8.68915 8.50663 8.63536 8.5264 8.59033 8.56002C8.54531 8.59364 8.51098 8.63966 8.49153 8.69249L7.58172 11.1959L7.41453 11.6485L7.09183 12.5285C7.07671 12.5668 7.0698 12.6079 7.07157 12.649C7.07334 12.6901 7.08374 12.7304 7.10209 12.7673C7.12044 12.8041 7.14632 12.8366 7.17805 12.8627C7.20978 12.8888 7.24664 12.9079 7.28623 12.9188L7.7528 13.0378L11.6642 14.0251L11.7594 13.9724L11.1762 12.8446C11.1413 12.7765 11.1346 12.6973 11.1575 12.6242C11.1804 12.5511 11.2312 12.4901 11.2987 12.4544L14.4461 10.79L16.2832 9.81442L22.8443 6.34521L25.3715 5.01255C25.4107 4.99175 25.4445 4.96211 25.4702 4.92595C25.496 4.8898 25.5131 4.84813 25.52 4.80423C25.527 4.76033 25.5237 4.7154 25.5104 4.673C25.4971 4.63059 25.4742 4.59186 25.4435 4.55988C23.8945 2.94014 21.9994 1.69454 19.901 0.917009C19.798 0.877985 19.6969 0.840913 19.5939 0.805791C18.0432 0.27022 16.4145 -0.00212711 14.7746 -4.92347e-05C14.2925 -4.92347e-05 13.8169 0.0227146 13.3477 0.0682423C12.7443 0.126085 12.1451 0.221224 11.5534 0.353116C11.116 0.450675 10.6844 0.567746 10.2625 0.704329C10.037 0.774572 9.81541 0.854571 9.59573 0.93457C9.30413 1.04384 9.01253 1.16286 8.73453 1.29164C5.82593 2.60574 3.4158 4.8243 1.86044 7.61934C1.71853 7.87299 1.58634 8.13055 1.45997 8.39981C1.03101 9.28871 0.69296 10.219 0.451024 11.1764C0.150142 12.3704 -0.00136258 13.5974 9.23266e-06 14.829C9.23266e-06 14.9246 9.23266e-06 15.0241 9.23266e-06 15.1178C0.0181165 16.1693 0.148463 17.2159 0.388815 18.2397C0.454912 18.5187 0.526841 18.7957 0.60849 19.0709C0.60849 19.0845 0.60849 19.0982 0.622098 19.1138C0.777999 19.6378 0.963632 20.1525 1.17809 20.6552C1.54426 21.517 1.99078 22.3421 2.51169 23.1196C2.6575 23.3322 2.80719 23.5449 2.96271 23.7518C3.26209 24.142 3.58285 24.5322 3.92112 24.901L3.9911 24.9771C4.69637 25.733 5.47821 26.4131 6.32393 27.0063C6.51834 27.1468 6.72635 27.2815 6.93242 27.4102C9.28208 28.8888 12.0014 29.6682 14.7746 29.658C15.1887 29.658 15.5989 29.6424 16.0052 29.6073C18.3531 29.4142 20.6202 28.6566 22.6149 27.3985C22.9065 27.2171 23.1981 27.0239 23.4644 26.8132C24.0896 26.3549 24.6785 25.8486 25.2257 25.299C27.1126 23.4073 28.4524 21.0368 29.1021 18.4406C29.2486 17.8576 29.3583 17.2658 29.4307 16.6689C29.5023 16.1039 29.5406 15.5351 29.5454 14.9656V14.829C29.5467 13.7798 29.4379 12.7334 29.2207 11.7071ZM15.8691 21.9703V21.9801C15.8682 21.9846 15.8682 21.9892 15.8691 21.9937C15.8687 21.9859 15.8687 21.9781 15.8691 21.9703Z" fill="#588BFF"/>
<path d="M30.739 6.08181C30.7789 6.09207 30.8162 6.11083 30.8483 6.13682C30.8803 6.1628 30.9065 6.19539 30.9249 6.2324C30.9434 6.2694 30.9536 6.30995 30.9551 6.3513C30.9566 6.39264 30.9492 6.43382 30.9334 6.47204L29.5648 10.0661C29.5448 10.1178 29.5103 10.1625 29.4656 10.1951C29.4209 10.2276 29.3678 10.2466 29.3127 10.2497C29.2576 10.2528 29.2027 10.2399 29.1547 10.2125C29.1067 10.1851 29.0675 10.1445 29.0419 10.0954L28.7308 9.49248C28.6949 9.42505 28.6339 9.37453 28.5611 9.35189C28.4884 9.32925 28.4096 9.3363 28.342 9.37151L28.1884 9.45346L27.7996 9.64858L25.424 10.9032L24.94 11.1607L16.8645 15.4377C16.8044 15.4683 16.7356 15.4766 16.6701 15.4612L16.4757 15.4143C16.434 15.405 16.395 15.3865 16.3614 15.3602C16.3278 15.3339 16.3004 15.3004 16.2812 15.2621L15.3578 13.3831C15.3403 13.3495 15.3295 13.3126 15.3262 13.2748C15.3228 13.2369 15.327 13.1988 15.3383 13.1625C15.3497 13.1262 15.3681 13.0926 15.3925 13.0635C15.4168 13.0344 15.4467 13.0104 15.4803 12.9929L23.6705 8.65932L24.1701 8.39396L26.5243 7.1491L26.9131 6.94228L27.0589 6.86423C27.0924 6.84656 27.1221 6.82245 27.1462 6.79327C27.1704 6.76409 27.1886 6.73042 27.1998 6.69418C27.211 6.65794 27.2149 6.61984 27.2115 6.58206C27.208 6.54428 27.1971 6.50756 27.1795 6.47399L26.6954 5.53742C26.6734 5.48842 26.6655 5.43423 26.6726 5.38096C26.6796 5.32769 26.7013 5.27744 26.7353 5.23588C26.7692 5.19431 26.814 5.16308 26.8647 5.14569C26.9153 5.12829 26.9698 5.12544 27.022 5.13743L29.2596 5.70718L30.739 6.08181Z" fill="#588BFF"/>
</g>
<path d="M52.4033 22.1102H49.9269L49.7279 20.3193C49.3299 20.9236 48.7329 21.4322 47.9369 21.8449C47.1557 22.2429 46.2123 22.4419 45.1068 22.4419C42.9252 22.4419 41.0753 21.6975 39.557 20.2087C38.0388 18.7199 37.2797 16.7447 37.2797 14.2831C37.2797 11.8362 38.0609 9.86097 39.6234 8.35746C41.2006 6.85394 43.0947 6.10218 45.3058 6.10218C47.222 6.10218 48.7845 6.5665 49.9932 7.49515C51.2167 8.42379 52.0421 9.56617 52.4696 10.9223L49.551 11.9615C49.3152 11.1508 48.8361 10.4506 48.1138 9.86097C47.4063 9.25662 46.4703 8.95444 45.3058 8.95444C43.9792 8.95444 42.822 9.41139 41.8344 10.3253C40.8616 11.2392 40.3751 12.5585 40.3751 14.2831C40.3751 15.9782 40.8468 17.2975 41.7902 18.2409C42.7483 19.1843 43.9276 19.6559 45.3279 19.6559C46.6251 19.6559 47.62 19.3317 48.3128 18.6831C49.0056 18.0198 49.411 17.327 49.5289 16.6047H44.5761V13.9514H52.4033V22.1102Z" fill="#588BFF"/>
<path d="M57.4058 15.4328H62.2701C62.2406 14.8285 62.0195 14.3199 61.6068 13.9072C61.2088 13.4945 60.6192 13.2881 59.838 13.2881C59.1304 13.2881 58.5555 13.5092 58.1133 13.9514C57.6711 14.3936 57.4353 14.8874 57.4058 15.4328ZM62.5576 18.263L65.0118 18.9926C64.717 19.995 64.1348 20.8204 63.2651 21.469C62.4102 22.1176 61.3415 22.4419 60.0591 22.4419C58.4966 22.4419 57.1699 21.9186 56.0792 20.872C54.9884 19.8107 54.443 18.3956 54.443 16.6268C54.443 14.9464 54.9736 13.5755 56.0349 12.5142C57.0962 11.4382 58.3492 10.9002 59.7937 10.9002C61.4741 10.9002 62.786 11.4013 63.7294 12.4037C64.6875 13.406 65.1666 14.7843 65.1666 16.5384C65.1666 16.6563 65.1592 16.7889 65.1445 16.9364C65.1445 17.0838 65.1445 17.2017 65.1445 17.2901L65.1224 17.4449H57.3395C57.3689 18.1524 57.649 18.742 58.1797 19.2137C58.7103 19.6854 59.3442 19.9213 60.0812 19.9213C61.3341 19.9213 62.1596 19.3685 62.5576 18.263Z" fill="#588BFF"/>
<path d="M71.1085 7.98158V11.2318H73.2974V13.8409H71.1085V18.3956C71.1085 18.8526 71.2116 19.1769 71.418 19.3685C71.6244 19.5601 71.9487 19.6559 72.3909 19.6559C72.7889 19.6559 73.091 19.6265 73.2974 19.5675V21.9997C72.8699 22.1766 72.3172 22.265 71.6391 22.265C70.5778 22.265 69.7376 21.9702 69.1185 21.3806C68.4994 20.7762 68.1899 19.9508 68.1899 18.9042V13.8409H66.222V11.2318H66.7748C67.3202 11.2318 67.7329 11.0771 68.013 10.7675C68.3078 10.4432 68.4552 10.0231 68.4552 9.50721V7.98158H71.1085Z" fill="#588BFF"/>
<path d="M85.7688 22.1102H75.9517V6.43384H85.7688V9.30821H79.003V12.8901H85.1276V15.6097H79.003V19.2358H85.7688V22.1102Z" fill="#588BFF"/>
<path d="M98.7541 26.3112H95.8797V21.0268C95.3196 21.926 94.3099 22.3755 92.8506 22.3755C91.3176 22.3755 90.0499 21.8375 89.0475 20.7615C88.0452 19.6707 87.544 18.2998 87.544 16.6489C87.544 15.0275 88.0231 13.6787 88.9812 12.6027C89.9541 11.5119 91.2144 10.9665 92.7621 10.9665C93.6171 10.9665 94.3099 11.1286 94.8405 11.4529C95.3859 11.7625 95.7544 12.1089 95.946 12.4921V11.2318H98.7541V26.3112ZM91.2586 14.4157C90.7574 14.9611 90.5068 15.7055 90.5068 16.6489C90.5068 17.5923 90.7574 18.3441 91.2586 18.9042C91.7745 19.4643 92.4231 19.7444 93.2043 19.7444C93.9856 19.7444 94.6268 19.4643 95.1279 18.9042C95.6439 18.3441 95.9018 17.5923 95.9018 16.6489C95.9018 15.7055 95.6439 14.9611 95.1279 14.4157C94.6268 13.8704 93.9856 13.5977 93.2043 13.5977C92.4231 13.5977 91.7745 13.8704 91.2586 14.4157Z" fill="#588BFF"/>
<path d="M108.934 22.1102C108.875 21.8154 108.845 21.4248 108.845 20.9384C108.565 21.4248 108.145 21.7933 107.585 22.0439C107.04 22.2797 106.457 22.3977 105.838 22.3977C104.556 22.3977 103.546 21.9923 102.809 21.1816C102.072 20.3561 101.704 19.3317 101.704 18.1082V11.2318H104.644V17.5112C104.644 18.1598 104.814 18.6905 105.153 19.1032C105.492 19.5012 105.986 19.7002 106.634 19.7002C107.268 19.7002 107.769 19.5085 108.138 19.1253C108.506 18.7273 108.691 18.204 108.691 17.5554V11.2318H111.631V20.1424C111.631 20.8352 111.668 21.4911 111.742 22.1102H108.934Z" fill="#588BFF"/>
<path d="M117.71 22.1102H114.77V11.2318H117.71V22.1102ZM114.416 7.67203C114.416 7.17086 114.593 6.74339 114.946 6.38962C115.3 6.02111 115.728 5.83685 116.229 5.83685C116.73 5.83685 117.157 6.01374 117.511 6.36751C117.865 6.72128 118.042 7.15612 118.042 7.67203C118.042 8.15846 117.865 8.57856 117.511 8.93233C117.157 9.2861 116.73 9.46298 116.229 9.46298C115.728 9.46298 115.3 9.2861 114.946 8.93233C114.593 8.57856 114.416 8.15846 114.416 7.67203Z" fill="#588BFF"/>
<path d="M124.485 7.98158V11.2318H126.674V13.8409H124.485V18.3956C124.485 18.8526 124.588 19.1769 124.794 19.3685C125.001 19.5601 125.325 19.6559 125.767 19.6559C126.165 19.6559 126.467 19.6265 126.674 19.5675V21.9997C126.246 22.1766 125.693 22.265 125.015 22.265C123.954 22.265 123.114 21.9702 122.495 21.3806C121.876 20.7762 121.566 19.9508 121.566 18.9042V13.8409H119.598V11.2318H120.151C120.696 11.2318 121.109 11.0771 121.389 10.7675C121.684 10.4432 121.831 10.0231 121.831 9.50721V7.98158H124.485Z" fill="#588BFF"/>
<path d="M133.168 26.3997H130.05L132.615 20.7394L127.994 11.2318H131.289L134.185 17.5997L136.86 11.2318H140L133.168 26.3997Z" fill="#588BFF"/>
<defs>
<clipPath id="clip0_4132_58810">
<rect width="30.9548" height="29.6542" fill="white"/>
</clipPath>
</defs>
</svg>
