<svg width="40" height="39" viewBox="0 0 40 39" fill="none" xmlns="http://www.w3.org/2000/svg">
<g clip-path="url(#clip0)">
<path d="M37.7592 15.1281L37.7366 15.0222L34.0338 16.9812L31.788 18.1688L30.1677 19.0286L26.4372 21.0028L24.6687 21.9357L23.0283 22.8055L19.2275 24.8226C19.1389 24.8674 19.0362 24.875 18.942 24.8438C18.8478 24.8126 18.7698 24.7451 18.7251 24.6562L18.2453 23.6628L18.0092 23.1963C17.9766 23.1301 17.9254 23.075 17.8618 23.0379C17.7982 23.0008 17.7251 22.9832 17.6517 22.9876C17.5783 22.9919 17.5077 23.0178 17.4489 23.0621C17.39 23.1064 17.3455 23.1671 17.3209 23.2367L16.939 24.3461L16.1326 26.6808L15.379 28.8921L15.3639 28.9349L16.1527 29.1467L18.5242 29.7896L21.5387 30.6066L21.5839 30.5788L20.6243 28.5996H20.6393L20.6192 28.5668C20.614 28.558 20.6081 28.5496 20.6017 28.5416V28.5265V28.4861L20.888 28.3374C20.8836 28.3288 20.8777 28.3211 20.8704 28.3147C20.879 28.3203 20.886 28.3281 20.8905 28.3374L24.7717 26.3203L27.417 24.9487L27.5777 24.8655L31.8985 22.629L32.195 22.4752L34.0338 21.5222C33.9635 21.9785 33.8705 22.4299 33.76 22.8711C33.107 25.4825 31.7716 27.8718 29.8914 29.7922C29.7356 29.9485 29.5799 30.1023 29.4191 30.2536C29.296 30.367 29.1679 30.478 29.0498 30.5864C28.8639 30.7503 28.673 30.9091 28.4796 31.0629C28.2861 31.2167 28.0852 31.368 27.8842 31.5142L27.7812 31.5874L27.6782 31.658L27.4697 31.7992C26.8362 32.2239 26.171 32.599 25.4801 32.9212C25.2289 33.0422 24.9576 33.1582 24.6863 33.2641C24.5205 33.3321 24.3522 33.3952 24.1839 33.4557C24.0156 33.5162 23.8423 33.5742 23.6815 33.6297L23.5081 33.6826C23.4504 33.7028 23.3926 33.7179 23.3323 33.7355C20.118 34.6652 16.6877 34.502 13.5753 33.2716L13.5326 33.254C13.1408 33.1002 12.7589 32.9262 12.3871 32.7497C12.2289 32.669 12.0706 32.5883 11.9123 32.4976C11.7541 32.4068 11.6034 32.3236 11.4476 32.2454C11.2919 32.1673 11.1462 32.0589 10.9954 31.963C10.9201 31.9151 10.8447 31.8672 10.7744 31.8168C10.4026 31.5647 10.0459 31.3125 9.7017 31.0301C9.56102 30.9192 9.42537 30.8058 9.29223 30.6898L8.89532 30.3368L8.61397 30.0695C8.52102 29.9788 8.42807 29.8855 8.34015 29.7947C8.01106 29.4568 7.69957 29.1089 7.40565 28.7433C7.21222 28.4912 7.02381 28.2567 6.84546 28.0071C6.38155 27.3577 5.96994 26.6722 5.61453 25.9572C5.60549 25.9429 5.59792 25.9277 5.59192 25.9118C5.5826 25.8973 5.57421 25.8821 5.5668 25.8664C5.40352 25.5311 5.24777 25.1857 5.1096 24.8377C4.69733 23.8084 4.40074 22.736 4.22535 21.6407C4.08056 20.8223 4.00243 19.9934 3.99172 19.1622C3.99095 18.58 4.0245 17.9982 4.09221 17.42C4.16866 16.7479 4.28951 16.0816 4.45395 15.4256C4.51424 15.1911 4.57955 14.9566 4.64989 14.7272C4.85235 14.0489 5.10424 13.3865 5.40352 12.7454C5.42613 12.6924 5.44873 12.642 5.47386 12.5916C6.28057 10.9149 7.38754 9.40127 8.73957 8.1263C9.03348 7.84643 9.33996 7.58169 9.65648 7.32703L9.85494 7.16819C9.99059 7.06229 10.1288 6.96144 10.2669 6.86058L10.4754 6.71182C10.6689 6.57567 10.8648 6.44456 11.0658 6.32102C11.2667 6.19747 11.4652 6.06888 11.6712 5.95542C11.8772 5.84196 12.0832 5.7285 12.2942 5.6226C12.5052 5.51671 12.7237 5.41081 12.9423 5.315C13.0202 5.27718 13.098 5.2444 13.1784 5.2091L13.6809 5.00992C13.8492 4.94689 14.015 4.88637 14.1833 4.82838C15.7627 4.28245 17.4215 4.00383 19.0919 4.0039H19.4084C19.6194 4.0039 19.8279 4.0039 20.0364 4.02912C20.1997 4.02912 20.3605 4.05181 20.5213 4.06694C20.7758 4.09215 21.027 4.12241 21.2749 4.15771C21.6191 4.20561 21.9582 4.26864 22.2948 4.34176C22.5309 4.39219 22.7646 4.45018 22.9982 4.51069C23.3172 4.59642 23.6287 4.69223 23.9377 4.7956C24.1487 4.86872 24.3597 4.94436 24.5657 5.02757C24.7717 5.11077 24.9777 5.19398 25.1812 5.2797L25.4826 5.41838L25.7062 5.52679C25.8544 5.59991 26.0026 5.67303 26.1483 5.75119L26.3669 5.8697L25.4525 6.34371L24.2266 6.97909L22.8776 7.6775L17.0822 10.6955L16.2331 11.1368L12.5981 13.0127L12.4675 12.7605L11.6561 11.1897C11.6227 11.1251 11.5713 11.0717 11.5082 11.0358C11.4451 11 11.3729 10.9833 11.3006 10.9879C11.2282 10.9924 11.1587 11.018 11.1005 11.0614C11.0423 11.1048 10.998 11.1643 10.9728 11.2326L9.79716 14.4675L9.58112 15.0524L9.16411 16.1895C9.14458 16.239 9.13566 16.2921 9.13794 16.3452C9.14023 16.3984 9.15366 16.4505 9.17737 16.4981C9.20108 16.5456 9.23453 16.5877 9.27553 16.6214C9.31654 16.6551 9.36417 16.6798 9.41532 16.6938L10.0182 16.8476L12.1736 17.3922L15.0725 18.1234L15.1956 18.0553L14.442 16.598C14.3969 16.51 14.3882 16.4076 14.4178 16.3132C14.4474 16.2188 14.513 16.1399 14.6003 16.0937L18.6673 13.943L21.0413 12.6824L29.5196 8.19941L32.7853 6.47734C32.8359 6.45046 32.8795 6.41215 32.9128 6.36544C32.9461 6.31872 32.9682 6.26487 32.9772 6.20814C32.9862 6.15141 32.982 6.09336 32.9648 6.03856C32.9476 5.98376 32.918 5.93372 32.8782 5.89239C30.8767 3.79936 28.4278 2.18978 25.7163 1.18505C25.5831 1.13462 25.4525 1.08671 25.3194 1.04133C23.3156 0.349259 21.2109 -0.00266979 19.0919 1.52486e-05C18.4689 1.52486e-05 17.8543 0.0294309 17.248 0.0882622C16.4683 0.163007 15.694 0.285946 14.9294 0.456378C14.3641 0.582445 13.8065 0.733725 13.2613 0.910219C12.9699 1.00099 12.6836 1.10436 12.3997 1.20774C12.0229 1.34893 11.6461 1.50273 11.2868 1.66914C7.52831 3.36723 4.41393 6.23408 2.40408 9.84585C2.2207 10.1736 2.04988 10.5064 1.88659 10.8544C1.33227 12.003 0.895448 13.2051 0.582817 14.4423C0.194015 15.9852 -0.00176074 17.5707 1.19305e-05 19.1622C1.19305e-05 19.2857 1.19305e-05 19.4143 1.19305e-05 19.5354C0.0234103 20.8942 0.191845 22.2467 0.50243 23.5695C0.587841 23.9301 0.680788 24.2881 0.786296 24.6436C0.786296 24.6612 0.786296 24.6789 0.803881 24.6991C1.00534 25.3762 1.24521 26.0413 1.52234 26.6909C1.99551 27.8045 2.57251 28.8708 3.24563 29.8754C3.43404 30.1502 3.62747 30.425 3.82844 30.6923C4.2153 31.1966 4.62979 31.7008 5.0669 32.1774L5.15733 32.2757C6.06869 33.2525 7.07898 34.1313 8.17184 34.8979C8.42305 35.0794 8.69184 35.2534 8.95812 35.4198C11.9944 37.3304 15.5083 38.3376 19.0919 38.3244C19.627 38.3244 20.157 38.3042 20.682 38.2588C23.7161 38.0093 26.6456 37.0303 29.2231 35.4047C29.6 35.1702 29.9768 34.9206 30.3209 34.6483C31.1288 34.056 31.8897 33.4019 32.5969 32.6917C35.0352 30.2472 36.7665 27.184 37.606 23.8292C37.7952 23.0758 37.937 22.3111 38.0305 21.5398C38.1231 20.8097 38.1726 20.0747 38.1787 19.3387V19.1622C38.1805 17.8064 38.0399 16.4542 37.7592 15.1281ZM20.5062 28.3903V28.4029C20.505 28.4087 20.505 28.4147 20.5062 28.4206C20.5056 28.4105 20.5056 28.4004 20.5062 28.3903ZM20.7348 28.2037H20.7524H20.7775H20.7348Z" fill="#4D84FF"/>
<path d="M39.7212 7.85902C39.7728 7.87229 39.821 7.89653 39.8624 7.9301C39.9039 7.96368 39.9377 8.0058 39.9615 8.05361C39.9853 8.10143 39.9986 8.15383 40.0005 8.20725C40.0024 8.26068 39.9928 8.31389 39.9725 8.36328L39.0304 10.8367L38.2039 13.0076C38.1781 13.0743 38.1336 13.1322 38.0758 13.1742C38.018 13.2163 37.9494 13.2408 37.8782 13.2448C37.8069 13.2488 37.7361 13.2321 37.674 13.1967C37.6119 13.1614 37.5613 13.1089 37.5282 13.0454L37.1263 12.2663C37.0798 12.1792 37.0011 12.1139 36.907 12.0846C36.813 12.0554 36.7112 12.0645 36.6238 12.11L36.4254 12.2159L35.923 12.468L32.8532 14.0892L32.2277 14.4221L21.7925 19.9488C21.7149 19.9883 21.6259 19.999 21.5413 19.9791L21.29 19.9186C21.2363 19.9065 21.1858 19.8826 21.1424 19.8486C21.0989 19.8146 21.0636 19.7713 21.0388 19.7219L19.8456 17.2939C19.8229 17.2503 19.809 17.2028 19.8047 17.1538C19.8004 17.1049 19.8057 17.0556 19.8204 17.0088C19.8351 16.9619 19.8589 16.9184 19.8904 16.8808C19.9218 16.8432 19.9604 16.8122 20.0039 16.7896L30.5873 11.1897L31.2329 10.8468L34.275 9.23819L34.7775 8.97093L34.9659 8.87007C35.0091 8.84724 35.0474 8.81608 35.0786 8.77838C35.1099 8.74068 35.1334 8.69716 35.1479 8.65033C35.1623 8.6035 35.1674 8.55427 35.1629 8.50545C35.1584 8.45663 35.1444 8.40918 35.1216 8.36581L34.4961 7.15556C34.4677 7.09224 34.4575 7.02222 34.4666 6.95338C34.4757 6.88454 34.5037 6.81961 34.5476 6.7659C34.5914 6.71219 34.6494 6.67183 34.7148 6.64936C34.7803 6.62688 34.8507 6.62319 34.9181 6.63869L37.8095 7.37492L39.7212 7.85902Z" fill="#4D84FF"/>
</g>
<defs>
<clipPath id="clip0">
<rect width="40" height="38.3193" fill="white"/>
</clipPath>
</defs>
</svg>
