<svg width="47" height="32" viewBox="0 0 47 32" fill="none" xmlns="http://www.w3.org/2000/svg">
<rect width="46.6667" height="32" rx="4" fill="#FFF4EE"/>
<path fill-rule="evenodd" clip-rule="evenodd" d="M23.667 22.8758C22.0782 24.2468 20.0173 25.0745 17.7654 25.0745C12.7405 25.0745 8.66699 20.9537 8.66699 15.8705C8.66699 10.7873 12.7405 6.6665 17.7654 6.6665C20.0173 6.6665 22.0782 7.49417 23.667 8.86521C25.2558 7.49417 27.3166 6.6665 29.5686 6.6665C34.5935 6.6665 38.667 10.7873 38.667 15.8705C38.667 20.9537 34.5935 25.0745 29.5686 25.0745C27.3166 25.0745 25.2558 24.2468 23.667 22.8758Z" fill="#ED0006"/>
<path fill-rule="evenodd" clip-rule="evenodd" d="M23.667 22.8758C25.6233 21.1876 26.8637 18.6756 26.8637 15.8705C26.8637 13.0654 25.6233 10.5534 23.667 8.86521C25.2558 7.49417 27.3166 6.6665 29.5686 6.6665C34.5935 6.6665 38.667 10.7873 38.667 15.8705C38.667 20.9537 34.5935 25.0745 29.5686 25.0745C27.3166 25.0745 25.2558 24.2468 23.667 22.8758Z" fill="#F9A000"/>
<path fill-rule="evenodd" clip-rule="evenodd" d="M23.6674 8.86523C25.6236 10.5534 26.8641 13.0654 26.8641 15.8705C26.8641 18.6755 25.6236 21.1875 23.6674 22.8757C21.7111 21.1875 20.4707 18.6755 20.4707 15.8705C20.4707 13.0654 21.7111 10.5534 23.6674 8.86523Z" fill="#FF5E00"/>
</svg>
