<svg width="16" height="15" viewBox="0 0 16 15" fill="none" xmlns="http://www.w3.org/2000/svg">
<path d="M8.64951 1.25003L15.794 13.625C15.8598 13.739 15.8945 13.8684 15.8945 14C15.8945 14.1317 15.8598 14.261 15.794 14.375C15.7282 14.489 15.6335 14.5837 15.5195 14.6495C15.4055 14.7154 15.2762 14.75 15.1445 14.75H0.855511C0.72386 14.75 0.594529 14.7154 0.480517 14.6495C0.366506 14.5837 0.27183 14.489 0.206006 14.375C0.140182 14.261 0.105529 14.1317 0.10553 14C0.105531 13.8684 0.140185 13.739 0.206011 13.625L7.35051 1.25003C7.41634 1.13602 7.51102 1.04135 7.62503 0.975532C7.73904 0.909712 7.86836 0.875061 8.00001 0.875061C8.13166 0.875061 8.26098 0.909712 8.37499 0.975532C8.489 1.04135 8.58368 1.13602 8.64951 1.25003ZM7.25001 11V12.5H8.75001V11H7.25001ZM7.25001 5.75003V9.50003H8.75001V5.75003H7.25001Z" fill="#F38B00"/>
</svg>
