<svg width="20" height="21" viewBox="0 0 20 21" fill="none" xmlns="http://www.w3.org/2000/svg">
<path d="M9.99999 18.8333C5.39749 18.8333 1.66666 15.1025 1.66666 10.5C1.66666 5.89751 5.39749 2.16667 9.99999 2.16667C14.6025 2.16667 18.3333 5.89751 18.3333 10.5C18.3333 15.1025 14.6025 18.8333 9.99999 18.8333ZM9.16666 13V14.6667H10.8333V13H9.16666ZM10.8333 11.6292C11.503 11.4273 12.078 10.9916 12.4535 10.4015C12.8289 9.81128 12.9799 9.10588 12.8789 8.41373C12.778 7.72157 12.4317 7.0887 11.9033 6.63039C11.3749 6.17207 10.6995 5.91879 9.99999 5.91667C9.3257 5.91662 8.67221 6.15013 8.15065 6.5775C7.62909 7.00487 7.27167 7.5997 7.13916 8.26084L8.77416 8.58834C8.82056 8.3562 8.93192 8.14201 9.0953 7.97069C9.25867 7.79936 9.46733 7.67796 9.69701 7.62059C9.92669 7.56323 10.1679 7.57226 10.3927 7.64665C10.6174 7.72103 10.8164 7.8577 10.9665 8.04076C11.1166 8.22383 11.2117 8.44575 11.2406 8.68071C11.2695 8.91567 11.2311 9.15401 11.1298 9.36799C11.0285 9.58198 10.8686 9.76281 10.6686 9.88945C10.4686 10.0161 10.2367 10.0833 9.99999 10.0833C9.77898 10.0833 9.56702 10.1711 9.41073 10.3274C9.25445 10.4837 9.16666 10.6957 9.16666 10.9167V12.1667H10.8333V11.6292Z" fill="#F38920"/>
</svg>
