<svg width="51" height="50" viewBox="0 0 51 50" fill="none" xmlns="http://www.w3.org/2000/svg">
<circle cx="25.5" cy="25" r="25" fill="#E6EDFF"/>
<path d="M31 21H33C33.2652 21 33.5196 21.1054 33.7071 21.2929C33.8946 21.4804 34 21.7348 34 22V34C34 34.2652 33.8946 34.5196 33.7071 34.7071C33.5196 34.8946 33.2652 35 33 35H17C16.7348 35 16.4804 34.8946 16.2929 34.7071C16.1054 34.5196 16 34.2652 16 34V22C16 21.7348 16.1054 21.4804 16.2929 21.2929C16.4804 21.1054 16.7348 21 17 21H19V20C19 18.4087 19.6321 16.8826 20.7574 15.7574C21.8826 14.6321 23.4087 14 25 14C26.5913 14 28.1174 14.6321 29.2426 15.7574C30.3679 16.8826 31 18.4087 31 20V21ZM29 21V20C29 18.9391 28.5786 17.9217 27.8284 17.1716C27.0783 16.4214 26.0609 16 25 16C23.9391 16 22.9217 16.4214 22.1716 17.1716C21.4214 17.9217 21 18.9391 21 20V21H29ZM24 27V29H26V27H24ZM20 27V29H22V27H20ZM28 27V29H30V27H28Z" fill="#2A62F5"/>
</svg>
