<svg width="34" height="34" viewBox="0 0 34 34" fill="none" xmlns="http://www.w3.org/2000/svg">
<path d="M16.9999 33.6667C7.79492 33.6667 0.333252 26.205 0.333252 17C0.333252 7.79501 7.79492 0.333344 16.9999 0.333344C26.2049 0.333344 33.6666 7.79501 33.6666 17C33.6666 26.205 26.2049 33.6667 16.9999 33.6667ZM15.3333 22V25.3333H18.6666V22H15.3333ZM18.6666 19.2583C20.006 18.8546 21.1559 17.9833 21.9068 16.8029C22.6578 15.6226 22.9597 14.2118 22.7578 12.8275C22.5559 11.4431 21.8634 10.1774 20.8066 9.26077C19.7498 8.34413 18.3989 7.83757 16.9999 7.83334C15.6513 7.83324 14.3444 8.30027 13.3012 9.155C12.2581 10.0097 11.5433 11.1994 11.2783 12.5217L14.5483 13.1767C14.6411 12.7124 14.8638 12.284 15.1905 11.9414C15.5173 11.5987 15.9346 11.3559 16.394 11.2412C16.8533 11.1265 17.3358 11.1445 17.7853 11.2933C18.2348 11.4421 18.6328 11.7154 18.933 12.0815C19.2332 12.4477 19.4232 12.8915 19.4811 13.3614C19.5389 13.8313 19.462 14.308 19.2595 14.736C19.057 15.164 18.7372 15.5256 18.3371 15.7789C17.9371 16.0322 17.4734 16.1666 16.9999 16.1667C16.5579 16.1667 16.134 16.3423 15.8214 16.6548C15.5088 16.9674 15.3333 17.3913 15.3333 17.8333V20.3333H18.6666V19.2583Z" fill="#4F5877"/>
</svg>
