<svg width="88" height="88" viewBox="0 0 88 88" fill="none" xmlns="http://www.w3.org/2000/svg">
<circle cx="44" cy="44" r="44" fill="#FEE6E6"/>
<g clip-path="url(#clip0_15106_94672)">
<path d="M31.0929 37.5462H56.9062V58.5195C56.9062 58.9474 56.7362 59.3578 56.4337 59.6603C56.1311 59.9629 55.7208 60.1329 55.2929 60.1329H32.7062C32.2783 60.1329 31.868 59.9629 31.5654 59.6603C31.2629 59.3578 31.0929 58.9474 31.0929 58.5195V37.5462ZM35.9329 32.7062V29.4795C35.9329 29.0517 36.1029 28.6413 36.4054 28.3387C36.708 28.0362 37.1183 27.8662 37.5462 27.8662H50.4529C50.8808 27.8662 51.2911 28.0362 51.5937 28.3387C51.8962 28.6413 52.0662 29.0517 52.0662 29.4795V32.7062H60.1329V35.9329H27.8662V32.7062H35.9329ZM39.1595 31.0929V32.7062H48.8395V31.0929H39.1595ZM39.1595 43.9995V53.6795H42.3862V43.9995H39.1595ZM45.6129 43.9995V53.6795H48.8395V43.9995H45.6129Z" fill="#EB5757"/>
</g>
<defs>
<clipPath id="clip0_15106_94672">
<rect width="38.72" height="38.72" fill="white" transform="translate(24.6396 24.6396)"/>
</clipPath>
</defs>
</svg>
