<svg width="51" height="50" viewBox="0 0 51 50" fill="none" xmlns="http://www.w3.org/2000/svg">
<path d="M22.8181 2.24199C26.4153 1.82109 30.1135 2.25273 33.508 3.52324C36.572 4.66924 39.3962 6.47295 41.6975 8.80107C39.7292 10.7527 37.779 12.7225 35.8132 14.6766C34.5461 13.4339 33.0695 12.3987 31.4445 11.68C29.2854 10.7122 26.8845 10.2864 24.5246 10.4495C21.8586 10.6214 19.2458 11.5477 17.072 13.1009C14.3747 15.0027 12.3547 17.8479 11.4665 21.0281C10.8005 23.3611 10.7453 25.8606 11.2829 28.2254C11.7151 30.1595 12.5569 31.9993 13.7268 33.5979C14.8127 35.0848 16.1828 36.3636 17.7414 37.3436C19.5378 38.4783 21.5871 39.2098 23.6965 39.4666C25.5041 39.6937 27.3537 39.5755 29.1189 39.1248C29.3127 39.0315 29.4236 39.2522 29.5451 39.3621C31.5344 41.3616 33.5334 43.3514 35.5232 45.3499C31.9436 47.0882 27.9065 47.8821 23.9362 47.6019C20.6135 47.3816 17.341 46.4261 14.4289 44.8099C13.2146 44.1458 12.0739 43.3538 10.9948 42.4886C10.1423 41.7654 9.30002 41.0232 8.56711 40.1766C7.32638 38.8392 6.26193 37.3392 5.38498 35.7396C5.18966 35.3626 4.9631 35.0013 4.80392 34.6067C4.58566 34.1648 4.39523 33.7103 4.20578 33.2557C3.96359 32.6077 3.7048 31.9646 3.52804 31.2952C3.50705 31.2068 3.45334 31.1326 3.405 31.0584C2.99972 29.659 2.77267 28.2103 2.65109 26.7596C2.52316 24.9354 2.58615 23.095 2.88449 21.2894C3.47922 17.6038 5.00412 14.0755 7.27218 11.1116C8.74289 9.18291 10.5207 7.48809 12.5193 6.11406C15.5681 4.00908 19.1369 2.6624 22.8181 2.24199ZM25.2194 4.70684C24.9411 4.75518 24.6843 4.89043 24.4685 5.06963C23.9607 5.50566 23.778 6.28105 24.0695 6.88994C24.3786 7.62334 25.2981 8.01787 26.0403 7.72002C26.7937 7.46416 27.2502 6.57207 27.0041 5.81279C26.8039 5.05937 25.9826 4.55352 25.2194 4.70684ZM12.1355 10.1751C11.8752 10.1888 11.6184 10.2688 11.3952 10.4036C10.8352 10.7469 10.5222 11.4651 10.6941 12.1058C10.8449 12.7933 11.5134 13.3294 12.2204 13.3074C12.9543 13.3274 13.6403 12.7513 13.7605 12.0296C13.8698 11.5252 13.6819 10.9773 13.3142 10.6209C13.0095 10.3118 12.5671 10.1512 12.1355 10.1751ZM6.47336 23.4563C6.15011 23.5164 5.8464 23.68 5.61691 23.9153C5.15549 24.3899 5.04465 25.1639 5.37179 25.7425C5.7214 26.4241 6.61593 26.761 7.32394 26.4563C8.05734 26.1873 8.49533 25.3128 8.25461 24.5662C8.05734 23.8138 7.23605 23.2986 6.47336 23.4563ZM11.9411 36.74C11.3801 36.8353 10.8923 37.2635 10.7282 37.8084C10.5393 38.3763 10.7219 39.0369 11.1628 39.4373C11.4631 39.7049 11.8659 39.8621 12.2697 39.8436C12.8147 39.8313 13.343 39.5081 13.594 39.0232C13.8347 38.5921 13.8454 38.0457 13.6286 37.6023C13.3444 36.9783 12.6125 36.6097 11.9411 36.74ZM25.2253 42.2103C24.6511 42.3089 24.155 42.7508 24.0002 43.3138C23.8112 43.9275 24.0554 44.6443 24.5818 45.0125C24.9655 45.2952 25.4812 45.387 25.9377 45.2498C26.407 45.1145 26.802 44.7498 26.9665 44.2889C27.2092 43.6668 26.9841 42.9061 26.4499 42.5086C26.1071 42.2425 25.6516 42.1341 25.2253 42.2103Z" fill="#A0A0A0"/>
<path d="M25.2192 4.70712C25.9824 4.5538 26.8036 5.05966 27.0038 5.81308C27.2499 6.57235 26.7934 7.46444 26.04 7.7203C25.2978 8.01815 24.3784 7.62362 24.0693 6.89022C23.7778 6.28134 23.9604 5.50595 24.4682 5.06991C24.684 4.89071 24.9409 4.75546 25.2192 4.70712Z" fill="#C1C1C1"/>
<path d="M6.47325 23.4567C7.23595 23.299 8.05724 23.8141 8.2545 24.5666C8.49523 25.3131 8.05724 26.1877 7.32384 26.4567C6.61583 26.7614 5.7213 26.4245 5.37169 25.7428C5.04454 25.1642 5.15538 24.3903 5.61681 23.9157C5.8463 23.6803 6.15001 23.5168 6.47325 23.4567Z" fill="#C1C1C1"/>
<path d="M41.6975 8.80127L41.7029 8.7959C42.906 10.0225 43.9958 11.3643 44.9065 12.8228C46.6648 15.6138 47.8059 18.7905 48.2205 22.0635C48.4973 24.2549 48.4778 26.4873 48.1204 28.6685C47.5002 32.5752 45.8284 36.3057 43.3401 39.3794C41.2746 41.9419 38.6589 44.0688 35.7029 45.52L35.6721 45.5073C35.6228 45.4536 35.573 45.4019 35.5232 45.3501C33.5334 43.3516 31.5344 41.3618 29.5452 39.3623C29.4236 39.2524 29.3127 39.0317 29.1189 39.125C27.3537 39.5757 25.5041 39.6938 23.6965 39.4668C21.5871 39.21 19.5378 38.4785 17.7414 37.3437C16.1828 36.3638 14.8127 35.085 13.7268 33.5981C12.5569 31.9995 11.7151 30.1597 11.2829 28.2256C10.7453 25.8608 10.8005 23.3613 11.4665 21.0283C12.3547 17.8481 14.3747 15.0029 17.072 13.1011C19.2458 11.5479 21.8586 10.6216 24.5246 10.4497C26.8845 10.2866 29.2854 10.7124 31.4446 11.6802C33.0696 12.3989 34.5461 13.4341 35.8132 14.6768C37.779 12.7227 39.7292 10.7529 41.6975 8.80127ZM24.5222 17.7842C23.4856 17.9233 22.4768 18.2861 21.5984 18.8555C20.4714 19.561 19.5593 20.5928 18.9665 21.7808C18.2546 23.2065 18.0564 24.8672 18.3562 26.4277C18.5481 27.397 18.9436 28.3262 19.5066 29.1382C19.8938 29.7007 20.3684 30.1958 20.8567 30.6704C23.656 33.4736 26.4529 36.2788 29.2546 39.0791C31.6516 38.4409 33.8772 37.1777 35.6536 35.4463C37.8562 33.3301 39.3479 30.4932 39.8679 27.4844C39.8796 27.4336 39.8787 27.3423 39.9582 27.3574C41.405 27.3594 42.8518 27.3569 44.2991 27.3599C45.2288 27.3452 46.0994 26.6387 46.2893 25.7261C46.3 25.667 46.2893 25.6128 46.2566 25.5625C46.3162 25.2837 46.3581 24.9971 46.324 24.7114L46.3122 24.731C46.2121 23.7378 45.2947 22.9185 44.2981 22.916C40.3606 22.9126 36.4231 22.9155 32.4851 22.9126C32.1706 21.8345 31.5818 20.8457 30.8235 20.0205C29.5637 18.6777 27.7834 17.8228 25.9397 17.7344C25.467 17.7354 24.9905 17.708 24.5222 17.7842ZM38.5051 36.7446C37.8879 36.8452 37.364 37.3594 37.2502 37.9741C37.178 38.3716 37.2434 38.8052 37.4812 39.1387C37.7624 39.5879 38.3015 39.8594 38.8293 39.8345C39.2356 39.8359 39.6243 39.6416 39.9114 39.3628C40.1492 39.0894 40.324 38.7441 40.3347 38.3765C40.3767 37.8213 40.0876 37.2485 39.6086 36.9624C39.2903 36.7446 38.8816 36.6816 38.5051 36.7446Z" fill="#686868"/>
<path d="M12.1355 10.1752C12.5671 10.1513 13.0095 10.3119 13.3142 10.621C13.6819 10.9774 13.8699 11.5253 13.7605 12.0297C13.6404 12.7514 12.9543 13.3275 12.2205 13.3075C11.5134 13.3295 10.845 12.7934 10.6941 12.1059C10.5222 11.4652 10.8352 10.747 11.3953 10.4037C11.6184 10.2689 11.8752 10.1889 12.1355 10.1752Z" fill="#C3C3C3"/>
<path d="M24.5221 17.7843C24.9904 17.7081 25.467 17.7354 25.9396 17.7345C27.7834 17.8228 29.5636 18.6778 30.8234 20.0206C31.5817 20.8458 32.1706 21.8346 32.485 22.9127C30.1574 22.9122 27.8293 22.9122 25.5011 22.9122C24.9059 22.9068 24.318 23.1768 23.9284 23.6256C23.6349 23.96 23.4528 24.3897 23.4186 24.8336C23.3605 25.5255 23.6803 26.235 24.2336 26.6539C24.6056 26.9425 25.0773 27.0933 25.548 27.0836C31.734 27.0816 37.9206 27.0807 44.1066 27.0851C44.339 27.087 44.5749 27.0777 44.8 27.0128C45.4938 26.8263 46.0705 26.2574 46.2565 25.5626C46.2892 25.6129 46.3 25.6671 46.2892 25.7262C46.0993 26.6388 45.2287 27.3453 44.299 27.36C42.8517 27.357 41.4049 27.3595 39.9582 27.3575C39.8786 27.3424 39.8796 27.4337 39.8678 27.4845C39.3478 30.4933 37.8561 33.3302 35.6535 35.4464C33.8771 37.1778 31.6515 38.441 29.2546 39.0792C26.4528 36.2789 23.6559 33.4737 20.8566 30.6705C20.3683 30.1959 19.8937 29.7008 19.5065 29.1383C18.9435 28.3263 18.548 27.3971 18.3561 26.4278C18.0563 24.8673 18.2546 23.2066 18.9665 21.7809C19.5592 20.5929 20.4714 19.5611 21.5983 18.8556C22.4767 18.2862 23.4855 17.9234 24.5221 17.7843Z" fill="#474747"/>
<path d="M23.9282 23.6256C24.3179 23.1768 24.9058 22.9068 25.501 22.9122C27.8291 22.9122 30.1572 22.9122 32.4849 22.9127C36.4229 22.9156 40.3604 22.9127 44.2979 22.9161C45.2944 22.9185 46.2119 23.7379 46.312 24.731C46.3027 24.7471 46.2837 24.7784 46.2739 24.794C46.0942 23.8902 45.2207 23.1749 44.2979 23.1803C38.1958 23.1851 32.0938 23.1861 25.9917 23.1886C25.6143 23.1949 25.2231 23.1495 24.8613 23.2843C24.4189 23.4229 24.0444 23.7286 23.7739 24.0997C23.6108 24.3219 23.5596 24.5997 23.4185 24.8336C23.4526 24.3897 23.6348 23.96 23.9282 23.6256Z" fill="#BFBFBF"/>
<path d="M11.9408 36.7405C12.6121 36.6101 13.3441 36.9788 13.6283 37.6028C13.845 38.0461 13.8343 38.5925 13.5936 39.0237C13.3426 39.5085 12.8143 39.8318 12.2694 39.844C11.8656 39.8625 11.4627 39.7053 11.1624 39.4377C10.7215 39.0373 10.5389 38.3767 10.7279 37.8088C10.8919 37.2639 11.3797 36.8357 11.9408 36.7405Z" fill="#BFBFBF"/>
<path d="M24.8613 23.2842C25.2231 23.1494 25.6142 23.1949 25.9916 23.1885C32.0937 23.1861 38.1957 23.1851 44.2978 23.1802C45.2206 23.1748 46.0942 23.8902 46.2739 24.794C46.2836 24.7783 46.3027 24.7471 46.3119 24.731L46.3237 24.7115C46.3578 24.9971 46.3158 25.2837 46.2563 25.5625C46.0702 26.2574 45.4936 26.8262 44.7997 27.0127C44.5746 27.0777 44.3388 27.0869 44.1064 27.085C37.9203 27.0806 31.7338 27.0816 25.5478 27.0835C25.0771 27.0933 24.6054 26.9424 24.2333 26.6538C23.6801 26.2349 23.3603 25.5254 23.4184 24.8335C23.5595 24.5996 23.6108 24.3218 23.7739 24.0996C24.0444 23.7285 24.4189 23.4229 24.8613 23.2842Z" fill="#B0B0B0"/>
<path d="M3.40479 31.0586C3.45312 31.1328 3.50684 31.207 3.52783 31.2954C3.70459 31.9648 3.96338 32.6079 4.20557 33.2559C4.39502 33.7104 4.58545 34.165 4.80371 34.6069C4.96289 35.0015 5.18945 35.3628 5.38477 35.7397C6.26172 37.3394 7.32617 38.8394 8.56689 40.1768C9.2998 41.0234 10.1421 41.7656 10.9946 42.4888C12.0737 43.354 13.2144 44.146 14.4287 44.8101C17.3408 46.4263 20.6133 47.3818 23.936 47.6021C27.9062 47.8823 31.9434 47.0884 35.5229 45.3501C35.5728 45.4019 35.6226 45.4536 35.6719 45.5073L35.6733 45.5371C33.6069 46.564 31.3823 47.272 29.103 47.6323C26.3242 48.0669 23.4653 47.998 20.7134 47.4126C17.3984 46.7119 14.2476 45.2539 11.562 43.1885C8.46045 40.814 5.97998 37.6353 4.43994 34.0444C4.02881 33.0742 3.66211 32.0806 3.40479 31.0586Z" fill="#939393"/>
<path d="M38.5049 36.7449C38.8814 36.6819 39.2901 36.7449 39.6084 36.9626C40.0874 37.2488 40.3765 37.8215 40.3345 38.3767C40.3237 38.7444 40.1489 39.0896 39.9111 39.363C39.624 39.6418 39.2354 39.8362 38.8291 39.8347C38.3013 39.8596 37.7622 39.5881 37.481 39.1389C37.2432 38.8054 37.1778 38.3718 37.25 37.9744C37.3638 37.3596 37.8877 36.8455 38.5049 36.7449Z" fill="#767676"/>
<path d="M25.2251 42.2103C25.6514 42.1342 26.107 42.2426 26.4497 42.5087C26.9839 42.9061 27.209 43.6669 26.9663 44.289C26.8018 44.7499 26.4068 45.1146 25.9375 45.2499C25.481 45.3871 24.9654 45.2953 24.5816 45.0126C24.0552 44.6444 23.8111 43.9276 24 43.3139C24.1548 42.7509 24.6509 42.309 25.2251 42.2103Z" fill="#BEBEBE"/>
</svg>
