<svg width="36" height="36" viewBox="0 0 36 36" fill="none" xmlns="http://www.w3.org/2000/svg">
<circle cx="18" cy="18" r="18" fill="#E6EDFF"/>
<g clip-path="url(#clip0_18498_7644)">
<path d="M26.3817 23.3962L21.8221 18.849C22.3008 17.9084 22.56 16.8646 22.56 15.7792C22.56 13.9683 21.8541 12.2658 20.5739 10.9856C19.2938 9.70507 17.5909 9 15.78 9C13.9695 9 12.2662 9.70507 10.986 10.9856C9.70587 12.2662 9 13.9687 9 15.7796C9 17.5905 9.70547 19.293 10.986 20.5731C12.2662 21.8537 13.9691 22.5588 15.7796 22.5588C16.865 22.5588 17.9092 22.3004 18.849 21.8221L23.3966 26.3821C23.8082 26.7936 24.3493 27.0004 24.8892 27.0004C25.4291 27.0004 25.9694 26.7936 26.3813 26.3821C27.2064 25.5571 27.2064 24.2209 26.3817 23.3962ZM12.7769 18.7819C11.9751 17.9796 11.5335 16.9138 11.5335 15.7796C11.5335 14.6454 11.9751 13.5792 12.7773 12.7769C13.5792 11.9751 14.6454 11.5331 15.7796 11.5331C16.9138 11.5331 17.98 11.9747 18.7823 12.7769C19.5841 13.5788 20.026 14.645 20.026 15.7792C20.026 16.9134 19.5841 17.9796 18.7823 18.7819C17.98 19.5837 16.9134 20.0252 15.7796 20.0252C14.6458 20.0252 13.5796 19.5841 12.7769 18.7819Z" fill="#4D84FF"/>
</g>
<defs>
<clipPath id="clip0_18498_7644">
<rect width="18" height="18.0004" fill="white" transform="translate(9 9)"/>
</clipPath>
</defs>
</svg>
