<svg width="36" height="36" viewBox="0 0 36 36" fill="none" xmlns="http://www.w3.org/2000/svg">
<circle cx="18" cy="18" r="18" fill="#E6EDFF"/>
<path d="M10.2857 19.5432L18.7714 19.544C19.5843 19.544 20.2511 20.1731 20.31 20.9717L20.3142 21.0868V23.0146C20.3135 26.2546 17.0071 27.2575 14.5285 27.2575C12.0995 27.2575 8.87475 26.2944 8.74673 23.2064L8.7428 23.0146V21.0861C8.7428 20.2731 9.37259 19.6064 10.1706 19.5475L10.2857 19.5432ZM20.4839 19.544L25.7142 19.5432C26.5272 19.5432 27.1939 20.173 27.2528 20.971L27.2571 21.0861V22.6289C27.2563 25.5287 24.6111 26.4861 22.6285 26.4861C21.8123 26.4861 20.8859 26.3202 20.0759 25.9268C20.6562 25.237 21.0329 24.3591 21.0805 23.2548L21.0857 23.0146V21.0868C21.0857 20.5454 20.8938 20.0525 20.5812 19.659L20.4839 19.544L25.7142 19.5432L20.4839 19.544ZM14.5285 9.51465C16.8713 9.51465 18.7714 11.4147 18.7714 13.7575C18.7714 16.1003 16.8713 18.0004 14.5285 18.0004C12.1857 18.0004 10.2857 16.1003 10.2857 13.7575C10.2857 11.4147 12.1857 9.51465 14.5285 9.51465ZM23.0142 11.0575C24.9312 11.0575 26.4857 12.6119 26.4857 14.5289C26.4857 16.4459 24.9312 18.0004 23.0142 18.0004C21.0972 18.0004 19.5428 16.4459 19.5428 14.5289C19.5428 12.6119 21.0972 11.0575 23.0142 11.0575Z" fill="#4D84FF"/>
</svg>
