<svg width="36" height="36" viewBox="0 0 36 36" fill="none" xmlns="http://www.w3.org/2000/svg">
<circle cx="18" cy="18" r="18" fill="#E6EDFF"/>
<g clip-path="url(#clip0_18506_176)">
<path d="M9.96763 19.9531H7.69001C7.41931 19.9531 7.19995 20.1725 7.19995 20.4432V21.3906V25.5491V26.4966C7.19995 26.7673 7.41931 26.9867 7.69001 26.9867H9.96763C10.2383 26.9867 10.4577 26.7673 10.4577 26.4966V25.5491V21.3906V20.4432C10.4577 20.1725 10.2383 19.9531 9.96763 19.9531Z" fill="#4D84FF"/>
<path d="M14.5696 17.2314H12.2919C12.0212 17.2314 11.8019 17.4508 11.8019 17.7215V21.39V22.8275V26.4959C11.8019 26.7666 12.0212 26.986 12.2919 26.986H14.5696C14.8403 26.986 15.0596 26.7666 15.0596 26.4959V22.8275V21.39V17.7215C15.0596 17.4508 14.8403 17.2314 14.5696 17.2314Z" fill="#4D84FF"/>
<path d="M19.6615 18.6832V14.6321H21.2343C21.5237 14.6321 21.701 14.3147 21.547 14.0673L18.3453 8.92405C18.2006 8.69068 17.8599 8.69068 17.7152 8.92405L14.5135 14.0673C14.3595 14.3147 14.5368 14.6321 14.8262 14.6321H16.3991V26.4962C16.3991 26.7669 16.6184 26.9863 16.8891 26.9863H19.1667C19.4374 26.9863 19.6568 26.7669 19.6568 26.5009C18.742 25.4554 18.1866 24.0879 18.1866 22.5897C18.1866 21.0962 18.742 19.7287 19.6615 18.6832Z" fill="#4D84FF"/>
<path d="M24.1374 17.9268C21.5611 17.9268 19.4749 20.013 19.4749 22.5893C19.4749 25.1657 21.5611 27.2519 24.1374 27.2519C26.7137 27.2519 28.8 25.1657 28.8 22.5893C28.8 20.013 26.7137 17.9268 24.1374 17.9268ZM25.4769 24.4329C25.2716 24.6803 25.0102 24.8483 24.6975 24.9323C24.5621 24.9696 24.5015 25.0396 24.5108 25.1797C24.5155 25.315 24.5108 25.455 24.5108 25.595C24.5108 25.7164 24.4501 25.7817 24.3288 25.7864C24.1794 25.7911 24.0301 25.7911 23.8854 25.7864C23.7547 25.7817 23.694 25.7117 23.694 25.5857C23.694 25.483 23.694 25.385 23.6894 25.2823C23.6894 25.0583 23.68 25.049 23.4653 25.0163C23.19 24.9743 22.9239 24.909 22.6719 24.7876C22.4759 24.6943 22.4572 24.6429 22.5132 24.4376C22.5552 24.2835 22.5972 24.1295 22.6439 23.9802C22.6999 23.8028 22.7466 23.7841 22.9099 23.8682C23.1853 24.0128 23.4793 24.0922 23.7874 24.1295C23.9881 24.1529 24.1794 24.1342 24.3615 24.0548C24.7022 23.9055 24.7582 23.5088 24.4688 23.2708C24.3708 23.1914 24.2588 23.1307 24.1421 23.0794C23.8434 22.9487 23.526 22.846 23.246 22.678C22.7839 22.4026 22.4946 22.0246 22.5272 21.4645C22.5646 20.8298 22.9239 20.4331 23.5074 20.223C23.7454 20.1344 23.75 20.139 23.75 19.887C23.75 19.803 23.75 19.719 23.75 19.635C23.7547 19.4436 23.7874 19.4156 23.9741 19.4063C24.0301 19.4063 24.0908 19.4063 24.1468 19.4063C24.5481 19.4063 24.5481 19.4063 24.5481 19.8077C24.5481 20.0924 24.5481 20.0924 24.8328 20.1344C25.0475 20.167 25.2576 20.2324 25.4536 20.3211C25.5656 20.3677 25.6076 20.4471 25.5703 20.5638C25.5189 20.7364 25.4723 20.9091 25.4163 21.0818C25.3649 21.2452 25.3136 21.2685 25.1549 21.1938C24.8422 21.0445 24.5155 20.9791 24.1701 20.9978C24.0814 21.0025 23.9927 21.0165 23.9087 21.0538C23.61 21.1845 23.5634 21.5159 23.8154 21.7166C23.9461 21.8192 24.0908 21.8939 24.2448 21.9593C24.5108 22.0666 24.7768 22.1739 25.0242 22.314C25.8223 22.7434 26.037 23.7468 25.4769 24.4329Z" fill="#4D84FF"/>
</g>
<defs>
<clipPath id="clip0_18506_176">
<rect width="21.6" height="21.6" fill="white" transform="translate(7.19995 7.2002)"/>
</clipPath>
</defs>
</svg>
