<svg width="24" height="25" viewBox="0 0 24 25" fill="none" xmlns="http://www.w3.org/2000/svg">
<path d="M12.0007 2.32422C6.24341 2.32422 1.57617 6.99231 1.57617 12.7488C1.57617 18.5061 6.24341 23.1725 12.0007 23.1725C17.7581 23.1725 22.4245 18.5061 22.4245 12.7488C22.4245 6.99231 17.7576 2.32422 12.0007 2.32422ZM17.2518 10.6469C17.2573 10.7595 17.2594 10.8726 17.2594 10.9869C17.2594 14.4586 14.6169 18.4612 9.78502 18.4612C8.30166 18.4612 6.92032 18.0265 5.75785 17.2814C5.96359 17.3055 6.17229 17.3178 6.38438 17.3178C7.61544 17.3178 8.74827 16.8979 9.64701 16.1934C8.49766 16.1719 7.52781 15.412 7.19337 14.3685C7.35339 14.3998 7.51807 14.4154 7.6874 14.4154C7.92701 14.4154 8.159 14.3841 8.37955 14.3236C7.17729 14.0823 6.27178 13.0197 6.27178 11.748C6.27178 11.7366 6.27178 11.7256 6.2722 11.7142C6.62611 11.911 7.03124 12.0291 7.46219 12.0431C6.75692 11.5711 6.29337 10.768 6.29337 9.85615C6.29337 9.37482 6.42291 8.92313 6.64897 8.53536C7.94479 10.1245 9.88069 11.1706 12.0642 11.2798C12.0194 11.0881 11.9961 10.887 11.9961 10.6812C11.9961 9.23089 13.1721 8.05445 14.6233 8.05445C15.3789 8.05445 16.0613 8.37364 16.5406 8.88376C17.1392 8.7665 17.7013 8.54721 18.2089 8.24622C18.0121 8.86005 17.5959 9.37483 17.0532 9.69952C17.5853 9.63602 18.0917 9.49463 18.5624 9.28592C18.211 9.81382 17.7653 10.2765 17.2518 10.6469Z" fill="#4C5B90"/>
</svg>
