<svg width="24" height="25" viewBox="0 0 24 25" fill="none" xmlns="http://www.w3.org/2000/svg">
<g clip-path="url(#clip0_19915_109257)">
<path d="M12 0.808594C18.6264 0.808594 24 6.18219 24 12.8086C24 19.435 18.6264 24.8086 12 24.8086C5.3736 24.8086 0 19.435 0 12.8086C0 6.18219 5.3736 0.808594 12 0.808594Z" fill="#1DA1F2"/>
<path d="M9.21511 18.9044C14.8743 18.9044 17.9727 14.2148 17.9727 10.1468C17.9727 10.0148 17.9727 9.88042 17.9631 9.74842C18.5655 9.31162 19.0863 8.77402 19.4991 8.15482C18.9375 8.40442 18.3423 8.56762 17.7327 8.63962C18.3759 8.25562 18.8559 7.65082 19.0863 6.93802C18.4815 7.29562 17.8215 7.55002 17.1327 7.68442C15.9663 6.44602 14.0175 6.38602 12.7791 7.55002C11.9799 8.30122 11.6415 9.42202 11.8887 10.49C9.41431 10.3652 7.10791 9.19642 5.54551 7.27402C4.72951 8.68042 5.14471 10.478 6.49831 11.3828C6.00871 11.3684 5.52871 11.2364 5.10151 10.9988C5.10151 11.0108 5.10151 11.0252 5.10151 11.0372C5.10151 12.5012 6.13351 13.7636 7.57111 14.054C7.11751 14.1764 6.64231 14.1956 6.18151 14.1068C6.58471 15.3596 7.73911 16.2188 9.05671 16.2452C7.96711 17.102 6.62071 17.5676 5.23591 17.5652C4.99111 17.5652 4.74631 17.5508 4.50391 17.5196C5.90551 18.4244 7.54471 18.9044 9.21511 18.902" fill="white"/>
</g>
<defs>
<clipPath id="clip0_19915_109257">
<rect width="24" height="24" fill="white" transform="translate(0 0.808594)"/>
</clipPath>
</defs>
</svg>
