<svg width="16" height="16" viewBox="0 0 16 16" fill="none" xmlns="http://www.w3.org/2000/svg">
<path d="M15.9987 5.78792L16 0.470199L13.8879 2.58229L13.6512 2.34561C12.1408 0.83523 10.1327 0.00341797 7.99666 0.00341797C3.58725 0.00338672 0 3.5907 0 8.00004C0 12.4094 3.58725 15.9967 7.99666 15.9967C12.4061 15.9967 15.9933 12.4094 15.9933 8.00004H14.4455C14.4455 11.556 11.5526 14.4489 7.99662 14.4489C4.44069 14.4489 1.54775 11.556 1.54775 8.00004C1.54775 4.44411 4.44072 1.55114 7.99666 1.55114C9.71928 1.55114 11.3387 2.22192 12.5568 3.43998L12.7935 3.67667L10.6816 5.78854L15.9987 5.78792Z" fill="black"/>
<path d="M7.99648 8.00013V5.1626H6.44873V9.54788H10.834V8.00013H7.99648Z" fill="black"/>
</svg>
