<svg width="120" height="120" viewBox="0 0 120 120" fill="none" xmlns="http://www.w3.org/2000/svg">
<circle opacity="0.5" cx="60" cy="60" r="60" fill="url(#paint0_radial_11435_34579)"/>
<circle cx="60" cy="60" r="37.5" fill="#00258A"/>
<path d="M60.5071 60.3402C64.6276 60.3402 67.968 56.2701 67.968 51.2494C67.968 46.2288 64.6276 42.1587 60.5071 42.1587C56.3865 42.1587 53.0461 46.2288 53.0461 51.2494C53.0461 56.2701 56.3865 60.3402 60.5071 60.3402Z" fill="white"/>
<path d="M74.0996 68.9032C74.453 69.5914 74.4576 70.4098 74.1042 71.098C71.656 75.8665 66.6875 79.1308 60.9587 79.1308C55.1973 79.1308 50.2055 75.8293 47.7736 71.0166C47.4527 70.3819 47.4527 69.6286 47.7736 68.9938C49.3058 65.9644 51.8516 63.5324 54.9648 62.149C55.5879 61.8724 56.311 61.9793 56.855 62.3908C57.8966 63.1813 59.194 63.6487 60.6006 63.6487C62.1049 63.6487 63.4859 63.1116 64.5601 62.2211C65.0809 61.7887 65.7947 61.6747 66.4224 61.9235C69.7472 63.2464 72.4744 65.7435 74.0996 68.9032Z" fill="#4D84FF"/>
<path d="M60.9584 79.6329C58.08 79.6329 55.2761 78.8284 52.8488 77.3032C50.4889 75.8222 48.5777 73.725 47.3222 71.2419C46.9316 70.4677 46.9316 69.54 47.3222 68.7635C48.9079 65.6247 51.5491 63.1114 54.7576 61.6839C55.5365 61.3374 56.4548 61.4537 57.1547 61.9861C58.1498 62.7417 59.3402 63.1416 60.5957 63.1416C61.9232 63.1416 63.2136 62.6766 64.2343 61.8303C64.8969 61.2793 65.806 61.1352 66.6058 61.4537C70.0328 62.8208 72.8531 65.3829 74.5433 68.6705C74.9711 69.5028 74.9735 70.4956 74.548 71.3256C71.9207 76.4523 66.7127 79.6329 60.9584 79.6329ZM55.6946 62.4953C55.5155 62.4953 55.3365 62.5325 55.1691 62.6046C52.1722 63.9368 49.7054 66.285 48.222 69.2169C47.9732 69.7098 47.9732 70.2957 48.222 70.7862C50.6656 75.6222 55.5458 78.6238 60.9584 78.6238C66.3338 78.6238 71.1977 75.6501 73.6552 70.8653C73.9342 70.3236 73.9319 69.6749 73.6505 69.1285C72.0719 66.0572 69.4376 63.6624 66.2338 62.386C65.7781 62.2047 65.2596 62.2884 64.8783 62.6022C63.6786 63.5973 62.1581 64.146 60.598 64.146C59.1216 64.146 57.7196 63.6764 56.5478 62.7859C56.2944 62.5953 55.9922 62.4953 55.6946 62.4953Z" fill="#6695FF"/>
<defs>
<radialGradient id="paint0_radial_11435_34579" cx="0" cy="0" r="1" gradientUnits="userSpaceOnUse" gradientTransform="translate(60 -102.923) rotate(90) scale(302.308)">
<stop stop-color="#709AF7"/>
<stop offset="1" stop-color="#497DF2" stop-opacity="0"/>
</radialGradient>
</defs>
</svg>
