<svg width="47" height="32" viewBox="0 0 47 32" fill="none" xmlns="http://www.w3.org/2000/svg">
<rect width="46.6667" height="32" rx="4" fill="#EBF3FA"/>
<path d="M19.9658 21.4436H17.3271L18.9775 11.2388H21.616L19.9658 21.4436Z" fill="#00579F"/>
<path d="M29.5295 11.4887C29.009 11.2822 28.1835 11.0542 27.1628 11.0542C24.5571 11.0542 22.7221 12.4437 22.7109 14.4303C22.6892 15.896 24.0246 16.7101 25.0234 17.1988C26.0443 17.6982 26.3913 18.0242 26.3913 18.4693C26.3809 19.1529 25.5664 19.4681 24.8067 19.4681C23.7532 19.4681 23.1888 19.3056 22.3309 18.9252L21.9835 18.7622L21.6143 21.053C22.2331 21.3349 23.3733 21.5851 24.5571 21.5961C27.3257 21.5961 29.1282 20.228 29.1495 18.111C29.1601 16.9493 28.4549 16.0592 26.9347 15.3318C26.0118 14.8649 25.4466 14.5501 25.4466 14.0723C25.4574 13.638 25.9246 13.1932 26.9664 13.1932C27.8242 13.1714 28.4545 13.3776 28.932 13.5839L29.1706 13.6923L29.5295 11.4887Z" fill="#00579F"/>
<path d="M33.0385 17.8284C33.2558 17.2421 34.0919 14.9732 34.0919 14.9732C34.081 14.9949 34.3088 14.3761 34.4391 13.9962L34.6235 14.8755C34.6235 14.8755 35.1232 17.3182 35.2317 17.8284C34.8193 17.8284 33.5596 17.8284 33.0385 17.8284ZM36.2955 11.2388H34.2545C33.6251 11.2388 33.147 11.4232 32.8754 12.0855L28.9561 21.4434H31.7247C31.7247 21.4434 32.1805 20.1839 32.2785 19.9126C32.5822 19.9126 35.2755 19.9126 35.6663 19.9126C35.742 20.2709 35.9811 21.4434 35.9811 21.4434H38.4242L36.2955 11.2388Z" fill="#00579F"/>
<path d="M15.123 11.2388L12.5389 18.1975L12.2565 16.7862C11.7787 15.1577 10.2804 13.3884 8.6084 12.5087L10.9753 21.4327H13.7656L17.9131 11.2388H15.123Z" fill="#00579F"/>
<path d="M10.1393 11.2388H5.89402L5.85059 11.445C9.1622 12.2918 11.3554 14.3331 12.2565 16.7866L11.3336 12.0966C11.1817 11.4448 10.7148 11.2603 10.1393 11.2388Z" fill="#FAA61A"/>
</svg>
